<?xml version="1.0" standalone="no"?>
<!DOCTYPE svg PUBLIC "-//W3C//DTD SVG 1.1//EN" "http://www.w3.org/Graphics/SVG/1.1/DTD/svg11.dtd" >
<svg xmlns="http://www.w3.org/2000/svg">
<metadata>Generated by IcoMoon</metadata>
<defs>
<font id="icomoon" horiz-adv-x="1024">
<font-face units-per-em="1024" ascent="960" descent="-64" />
<missing-glyph horiz-adv-x="1024" />
<glyph unicode="&#x20;" horiz-adv-x="512" d="" />
<glyph unicode="&#xe900;" glyph-name="type" horiz-adv-x="1120" d="M625.331 318.53h-95.652c-52.827 0-95.652-42.825-95.652-95.652v0-95.652h286.917v95.652c-0.022 52.804-42.811 95.607-95.608 95.652h-0.004zM664.831 461.969c0-52.827-42.825-95.652-95.652-95.652s-95.652 42.825-95.652 95.652c0 52.827 42.825 95.652 95.652 95.652s95.652-42.825 95.652-95.652zM1052.017 332.578l-492.191 492.191-492.23-492.191-67.635 67.635 559.826 559.826 559.826-559.826zM1018.554-64.039h-860.712v573.835h95.652v-478.182h669.329v478.182h95.652z" />
<glyph unicode="&#xe901;" glyph-name="delete-2" horiz-adv-x="832" d="M751.991 831.992h-175.986v31.985c0 0 0 0 0 0 0 53.032-42.991 96.023-96.023 96.023-0.070 0-0.141 0-0.211 0h-127.797c-53.032 0-96.023-42.991-96.023-96.023v0-31.985h-175.986c-44.163 0-79.964-35.801-79.964-79.964v0-63.971c0-17.665 14.32-31.985 31.985-31.985v0h767.983c17.665 0 31.985 14.32 31.985 31.985v0 63.971c0 44.163-35.801 79.964-79.964 79.964v0zM319.854 863.977c0.038 17.65 14.336 31.948 31.982 31.985h127.946c17.65-0.038 31.948-14.336 31.985-31.982v-31.989h-191.913zM60.706 591.968c-0.003 0-0.007 0-0.011 0-5.52 0-9.995-4.475-9.995-9.995 0-0.164 0.004-0.327 0.012-0.489l-0.001 0.023 26.655-554.081c2.451-51.002 44.398-91.425 95.786-91.425 0.037 0 0.073 0 0.11 0h485.973c0.031 0 0.067 0 0.104 0 51.388 0 93.335 40.423 95.777 91.206l0.008 0.219 26.655 554.081c0.007 0.139 0.011 0.302 0.011 0.466 0 5.52-4.475 9.995-9.995 9.995-0.004 0-0.008 0-0.011 0h0.001zM543.952 512.004c0 17.665 14.32 31.985 31.985 31.985s31.985-14.32 31.985-31.985v0-416.010c0-17.665-14.32-31.985-31.985-31.985s-31.985 14.32-31.985 31.985v0zM384.025 512.004c0 17.665 14.32 31.985 31.985 31.985s31.985-14.32 31.985-31.985v0-416.010c0-17.665-14.32-31.985-31.985-31.985s-31.985 14.32-31.985 31.985v0zM224.098 512.004c0 17.665 14.32 31.985 31.985 31.985s31.985-14.32 31.985-31.985v0-416.010c0-17.665-14.32-31.985-31.985-31.985s-31.985 14.32-31.985 31.985v0z" />
<glyph unicode="&#xe902;" glyph-name="t1" d="M0 610.816c0 76.8 0 153.6 0 230.4 0 27.648 9.216 36.864 36.864 36.864 135.168 0 270.336 0 405.504 0 26.624 0 35.84-10.24 35.84-35.84 0-154.624 0-309.248 0-463.872 0-26.624-9.216-35.84-35.84-35.84-136.192 0-271.36 0-407.552 0-24.576 0-34.816 9.216-34.816 35.84 0 77.824 0 154.624 0 232.448zM1024 288.256c0-77.824 0-154.624 0-232.448 0-25.6-9.216-35.84-35.84-35.84-136.192 0-272.384 0-408.576 0-25.6 0-35.84 9.216-35.84 35.84 0 154.624 0 309.248 0 464.896 0 25.6 10.24 35.84 35.84 35.84 136.192 0 272.384 0 408.576 0 25.6 0 35.84-10.24 35.84-35.84 0-76.8 0-154.624 0-232.448zM784.384 878.080c67.584 0 135.168 0 202.752 0 6.144 0 12.288 0 18.432-2.048 14.336-3.072 18.432-8.192 18.432-22.528 0-72.704 0-146.432 0-219.136 0-14.336-4.096-20.48-18.432-23.552-6.144-1.024-13.312-2.048-19.456-2.048-134.144 0-267.264 0-401.408 0-5.12 0-9.216 0-14.336 1.024-18.432 3.072-25.6 8.192-25.6 27.648 1.024 71.68 0 144.384 0 216.064 0 14.336 3.072 19.456 17.408 22.528 6.144 2.048 13.312 2.048 19.456 2.048 67.584 0 135.168 0 202.752 0zM239.616 17.92c-66.56 0-132.096 0-198.656 0-6.144 0-12.288 0-18.432 1.024-17.408 2.048-22.528 8.192-22.528 24.576 0 71.68 0 144.384 0 216.064 0 16.384 3.072 22.528 22.528 26.624 4.096 1.024 9.216 1.024 14.336 1.024 135.168 0 270.336 0 405.504 0 5.12 0 11.264 0 16.384-1.024 15.36-3.072 20.48-9.216 20.48-24.576 0-72.704 0-145.408 0-218.112 0-14.336-5.12-20.48-19.456-23.552-6.144-2.048-13.312-2.048-20.48-2.048-66.56 0-133.12 0-199.68 0z" />
<glyph unicode="&#xe903;" glyph-name="t2" d="M240.64 688.64c67.584 0 135.168 0 202.752 0 25.6 0 34.816-10.24 34.816-35.84 0-115.712 0-231.424 0-347.136 0-24.576-10.24-34.816-34.816-34.816-136.192 0-273.408 0-409.6 0-24.576 0-34.816 10.24-34.816 34.816 1.024 115.712 1.024 231.424 1.024 347.136 0 25.6 10.24 35.84 35.84 35.84 67.584 0 136.192 0 204.8 0zM784.384 437.76c67.584 0 136.192 0 203.776 0 25.6 0 34.816-10.24 34.816-35.84 0-115.712 0-231.424 0-347.136 0-24.576-10.24-34.816-34.816-34.816-136.192 0-273.408 0-409.6 0-23.552 0-34.816 10.24-34.816 33.792 0 116.736 0 233.472 0 349.184 0 23.552 10.24 33.792 34.816 33.792 69.632 1.024 137.216 1.024 205.824 1.024zM512 879.104c154.624 0 310.272 0 464.896 0 28.672 0 37.888-9.216 37.888-37.888 0-24.576 0-49.152 0-73.728s-10.24-34.816-33.792-34.816c-84.992 0-168.96 0-253.952 0-226.304 0-453.632 0-679.936 0-7.168 0-16.384 1.024-22.528 4.096-10.24 4.096-14.336 13.312-14.336 24.576 0 29.696 0 59.392 0 89.088 0 17.408 12.288 28.672 31.744 28.672 77.824 0 155.648 0 233.472 0 78.848 0 157.696 0 236.544 0zM239.616 226.816c66.56 0 134.144 0 200.704 0 9.216 0 18.432-1.024 27.648-3.072 8.192-2.048 11.264-7.168 11.264-15.36 0-57.344 0-114.688 0-172.032 0-8.192-4.096-13.312-11.264-15.36-8.192-2.048-17.408-3.072-25.6-3.072-135.168 0-270.336 0-405.504 0-3.072 0-7.168 0-10.24 0-23.552 2.048-26.624 5.12-26.624 28.672 0 53.248 0 105.472 0 158.72 0 14.336 4.096 18.432 17.408 20.48 8.192 1.024 15.36 1.024 23.552 1.024 66.56 0 132.096 0 198.656 0zM784.384 478.72c-65.536 0-131.072 0-196.608 0-4.096 0-8.192 0-11.264 0-27.648 1.024-30.72 4.096-30.72 31.744 0 52.224 0 104.448 0 157.696 0 11.264 5.12 16.384 14.336 18.432 7.168 1.024 14.336 2.048 20.48 2.048 136.192 0 272.384 0 408.576 0 3.072 0 7.168 0 10.24 0 20.48-2.048 24.576-6.144 24.576-26.624 0-53.248 0-107.52 0-160.768 0-13.312-3.072-18.432-16.384-20.48-8.192-2.048-15.36-2.048-22.528-2.048-66.56 0-134.144 0-200.704 0z" />
<glyph unicode="&#xe904;" glyph-name="t3" d="M512 653.824c-157.696 0-315.392 0-473.088 0-29.696 0-38.912 9.216-38.912 37.888 0 67.584 0 135.168 0 203.776 0 25.6 10.24 35.84 35.84 35.84 317.44 0 634.88 0 953.344 0 25.6 0 35.84-10.24 35.84-35.84 0-68.608 0-136.192 0-204.8 0-27.648-9.216-37.888-36.864-37.888-159.744 1.024-317.44 1.024-476.16 1.024zM512 308.736c-157.696 0-315.392 0-473.088 0-29.696 0-38.912 9.216-38.912 38.912 0 67.584 0 135.168 0 203.776 0 25.6 10.24 35.84 35.84 35.84 317.44 0 634.88 0 953.344 0 25.6 0 35.84-10.24 35.84-35.84 0-68.608 0-137.216 0-205.824 0-25.6-10.24-35.84-35.84-35.84-159.744-1.024-318.464-1.024-477.184-1.024zM513.024 242.176c157.696 0 315.392 0 472.064 0 29.696 0 37.888-9.216 37.888-38.912 0-67.584 0-135.168 0-203.776 0-25.6-10.24-35.84-35.84-35.84-317.44 0-634.88 0-953.344 0-25.6 0-35.84 10.24-35.84 35.84 2.048 69.632 2.048 139.264 2.048 207.872 0 24.576 10.24 34.816 34.816 34.816 159.744 0 318.464 0 478.208 0z" />
<glyph unicode="&#xe905;" glyph-name="box" d="M37.888 448c0 88.064 0 177.152 0 265.216 0 15.36 6.144 24.576 19.456 31.744 146.432 70.656 292.864 140.288 438.272 210.944 10.24 5.12 20.48 5.12 31.744 0 143.36-69.632 286.72-139.264 431.104-207.872 21.504-10.24 27.648-23.552 27.648-46.080-1.024-172.032 0-345.088 0-517.12 0-16.384-6.144-26.624-21.504-33.792-145.408-69.632-290.816-140.288-436.224-210.944-11.264-6.144-21.504-6.144-33.792 0-145.408 70.656-289.792 140.288-435.2 210.944-14.336 7.168-21.504 16.384-21.504 32.768 0 88.064 0 176.128 0 264.192zM484.352 3.584c0 3.072 0 5.12 0 7.168 0 156.672 0 312.32 0 468.992 0 5.12-1.024 7.168-6.144 10.24-126.976 60.416-253.952 121.856-380.928 183.296-2.048 1.024-4.096 2.048-7.168 3.072 0-3.072 0-5.12 0-7.168 0-155.648 0-312.32 0-467.968 0-6.144 2.048-8.192 7.168-11.264 126.976-61.44 252.928-121.856 379.904-183.296 2.048-1.024 4.096-2.048 7.168-3.072zM722.944 576c-4.096-2.048-7.168-3.072-9.216-4.096-56.32-26.624-111.616-54.272-167.936-80.896-6.144-3.072-8.192-6.144-8.192-12.288 0-154.624 0-310.272 0-464.896 0-3.072 0-5.12 0-9.216 3.072 1.024 6.144 2.048 8.192 3.072 126.976 61.44 253.952 122.88 380.928 184.32 5.12 2.048 7.168 5.12 7.168 11.264 0 155.648 0 311.296 0 467.968 0 2.048 0 5.12-1.024 8.192-3.072-1.024-5.12-2.048-7.168-3.072-47.104-22.528-95.232-46.080-143.36-68.608-6.144-3.072-8.192-6.144-8.192-12.288 0-47.104 0-93.184 0-140.288 0-11.264-4.096-20.48-14.336-25.6-17.408-9.216-37.888 3.072-37.888 23.552 0 32.768 0 64.512 0 97.28 1.024 6.144 1.024 14.336 1.024 25.6zM696.32 621.056c-3.072 2.048-5.12 3.072-8.192 4.096-123.904 59.392-247.808 119.808-372.736 180.224-5.12 2.048-9.216 3.072-14.336 0-57.344-27.648-113.664-55.296-171.008-82.944-2.048-1.024-4.096-2.048-6.144-4.096 3.072-1.024 4.096-3.072 6.144-3.072 124.928-60.416 249.856-120.832 374.784-181.248 5.12-2.048 8.192-2.048 12.288 0 41.984 20.48 83.968 40.96 124.928 60.416 18.432 9.216 35.84 17.408 54.272 26.624zM898.048 718.336c-2.048 1.024-3.072 2.048-4.096 2.048-125.952 61.44-251.904 122.88-377.856 183.296-3.072 1.024-8.192 1.024-11.264 0-43.008-20.48-86.016-40.96-128-61.44-2.048-1.024-4.096-2.048-7.168-4.096 2.048-1.024 4.096-2.048 5.12-3.072 124.928-61.44 249.856-121.856 375.808-182.272 3.072-2.048 8.192-1.024 12.288 0 43.008 20.48 87.040 41.984 130.048 62.464 1.024 1.024 2.048 2.048 5.12 3.072z" />
<glyph unicode="&#xe906;" glyph-name="build" d="M167.936 105.984c0 5.12 0 10.24 0 14.336 0 121.856 0 244.736 0 366.592 0 5.12 0 9.216 1.024 14.336 2.048 13.312 13.312 21.504 25.6 21.504 13.312 0 23.552-9.216 25.6-22.528 1.024-4.096 0-7.168 0-11.264 0-134.144 0-268.288 0-402.432 0-24.576-9.216-33.792-33.792-33.792-27.648 0-54.272 0-82.944 0 0-18.432 0-35.84 0-54.272 272.384 0 543.744 0 817.152 0 0 17.408 0 34.816 0 53.248-4.096 0-8.192 1.024-12.288 1.024-24.576 0-49.152 0-72.704 0-22.528 0-31.744 9.216-31.744 31.744 0 136.192 0 272.384 0 408.576 0 20.48 11.264 31.744 28.672 29.696 12.288-1.024 21.504-10.24 23.552-21.504 1.024-5.12 0-9.216 0-14.336 0-121.856 0-244.736 0-366.592 0-4.096 0-8.192 0-14.336 5.12 0 9.216 0 13.312 0 24.576 0 49.152 0 74.752 0 20.48 0 29.696-10.24 30.72-29.696 0-32.768 0-66.56 0-99.328 0-19.456-10.24-29.696-29.696-29.696-25.6 0-50.176 0-75.776 0-260.096 0-521.216 0-781.312 0-28.672-1.024-36.864 8.192-36.864 34.816 0 29.696 0 58.368 0 88.064 0 27.648 8.192 35.84 35.84 35.84 23.552 0 46.080 0 69.632 0 3.072 0 6.144 0 11.264 0zM513.024 557.568c-157.696 0-315.392 0-473.088 0-23.552 0-33.792 5.12-37.888 18.432-4.096 14.336 1.024 22.528 19.456 36.864 156.672 107.52 313.344 216.064 468.992 324.608 22.528 15.36 26.624 15.36 49.152 0 156.672-109.568 312.32-220.16 467.968-328.704 19.456-14.336 20.48-35.84 5.12-45.056-6.144-4.096-16.384-5.12-24.576-5.12-136.192 0-272.384 0-407.552 0-22.528-1.024-45.056-1.024-67.584-1.024zM915.456 609.792c-135.168 95.232-267.264 188.416-400.384 281.6-135.168-93.184-268.288-186.368-405.504-281.6 270.336 0 536.576 0 805.888 0zM347.136 266.752c0-61.44 0-121.856 0-183.296 0-19.456-13.312-32.768-29.696-29.696-13.312 2.048-22.528 12.288-22.528 26.624s0 28.672 0 43.008c0 106.496 0 211.968 0 318.464 0 3.072 0 5.12 0 8.192 0 18.432 11.264 30.72 26.624 30.72s25.6-12.288 25.6-30.72c0-61.44 0-121.856 0-183.296zM475.136 266.752c0-59.392 0-119.808 0-179.2 0-5.12 0-10.24-2.048-15.36-3.072-11.264-13.312-18.432-24.576-18.432s-21.504 7.168-24.576 17.408c-1.024 5.12-2.048 11.264-2.048 16.384 0 119.808 0 238.592 0 358.4 0 22.528 9.216 34.816 26.624 34.816 16.384 0 26.624-12.288 26.624-34.816 0-59.392 0-118.784 0-179.2zM677.888 267.776c0 61.44 0 122.88 0 184.32 0 21.504 16.384 33.792 34.816 27.648 9.216-3.072 14.336-9.216 16.384-19.456 1.024-4.096 1.024-9.216 1.024-13.312 0-119.808 0-238.592 0-358.4 0-4.096 0-8.192-1.024-12.288-2.048-13.312-12.288-22.528-25.6-22.528s-24.576 10.24-25.6 24.576c-1.024 9.216 0 17.408 0 26.624 0 54.272 0 108.544 0 162.816zM548.864 267.776c0 61.44 0 122.88 0 184.32 0 21.504 17.408 33.792 35.84 26.624 9.216-3.072 14.336-10.24 16.384-19.456 1.024-5.12 1.024-10.24 1.024-15.36 0-117.76 0-235.52 0-353.28 0-4.096 0-8.192 0-12.288-2.048-14.336-12.288-24.576-26.624-24.576s-24.576 11.264-25.6 25.6c0 15.36 0 30.72 0 45.056-1.024 48.128-1.024 96.256-1.024 143.36z" />
<glyph unicode="&#xe907;" glyph-name="bullhorn" d="M354.304 265.728c0-3.072 0-6.144 0-8.192 0-48.128 0-95.232 0-143.36 0-37.888-24.576-68.608-61.44-76.8-3.072-1.024-5.12-1.024-8.192-1.024-27.648 0-55.296-1.024-81.92 0-37.888 2.048-68.608 33.792-69.632 71.68-1.024 49.152 0 99.328 0 148.48 0 2.048 0 5.12 0 8.192-11.264 0-21.504 0-31.744 0-14.336 0-28.672-1.024-41.984 2.048-35.84 9.216-59.392 38.912-59.392 76.8 0 91.136 0 183.296 0 274.432 0 38.912 24.576 68.608 60.416 75.776 7.168 1.024 13.312 2.048 20.48 2.048 114.688 0 229.376 0 343.040 0 5.12 0 9.216 1.024 13.312 5.12 60.416 49.152 120.832 99.328 181.248 148.48 14.336 12.288 31.744 13.312 49.152 6.144 16.384-7.168 22.528-22.528 23.552-38.912 0-2.048 0-4.096 0-6.144 0-225.28 0-451.584 0-676.864 0-5.12 0-9.216-1.024-14.336-4.096-20.48-23.552-31.744-43.008-24.576-8.192 3.072-17.408 8.192-24.576 14.336-62.464 50.176-124.928 101.376-188.416 152.576-3.072 2.048-6.144 3.072-10.24 3.072-21.504 1.024-45.056 1.024-69.632 1.024zM415.744 312.832c0 112.64 0 224.256 0 335.872-3.072 0-5.12 0-7.168 0-109.568 0-219.136 0-328.704 0-21.504 0-33.792-11.264-33.792-33.792 0-89.088 0-178.176 0-267.264 0-22.528 11.264-34.816 33.792-34.816 109.568 0 218.112 0 327.68 0 2.048 0 5.12 0 8.192 0zM645.12 809.472c-2.048-1.024-3.072-2.048-4.096-3.072-57.344-47.104-115.712-94.208-173.056-140.288-3.072-3.072-5.12-5.12-4.096-10.24 0-115.712 0-232.448 0-348.16 0-4.096 1.024-7.168 5.12-9.216 54.272-44.032 108.544-88.064 161.792-131.072 5.12-4.096 9.216-7.168 15.36-12.288-1.024 217.088-1.024 435.2-1.024 654.336zM179.2 265.728c0-2.048 0-4.096 0-6.144 0-48.128 0-96.256 0-144.384 0-19.456 13.312-32.768 32.768-32.768 20.48 0 40.96 0 61.44 0 21.504 0 33.792 12.288 33.792 33.792 0 47.104 0 94.208 0 141.312 0 2.048 0 4.096 0 6.144-43.008 2.048-84.992 2.048-128 2.048zM1024 485.888c0-103.424-20.48-192.512-60.416-278.528-2.048-4.096-4.096-7.168-6.144-10.24-7.168-8.192-18.432-10.24-27.648-5.12s-14.336 15.36-12.288 25.6c1.024 4.096 3.072 8.192 4.096 12.288 27.648 59.392 46.080 121.856 52.224 187.392 11.264 109.568-6.144 215.040-54.272 314.368-6.144 13.312-2.048 26.624 9.216 32.768 12.288 6.144 24.576 1.024 31.744-12.288 1.024-2.048 2.048-3.072 3.072-5.12 23.552-48.128 38.912-99.328 49.152-151.552 7.168-39.936 11.264-79.872 11.264-109.568zM875.52 476.672c0-53.248-12.288-103.424-33.792-151.552-6.144-13.312-18.432-18.432-31.744-13.312-12.288 5.12-17.408 19.456-12.288 32.768 4.096 11.264 10.24 22.528 13.312 33.792 26.624 78.848 22.528 155.648-12.288 231.424-8.192 17.408 2.048 33.792 15.36 34.816 10.24 1.024 20.48-3.072 25.6-14.336 8.192-17.408 15.36-34.816 20.48-53.248 10.24-29.696 15.36-67.584 15.36-100.352z" />
<glyph unicode="&#xe908;" glyph-name="calendar" d="M89.088 674.304c281.6 0 563.2 0 845.824 0 0 6.144 0 11.264 0 17.408 0 19.456 1.024 39.936-1.024 58.368-7.168 51.2-47.104 86.016-100.352 89.088-17.408 1.024-29.696 10.24-31.744 25.6-3.072 19.456 11.264 34.816 31.744 34.816 71.68 0 139.264-52.224 156.672-121.856 4.096-15.36 5.12-31.744 6.144-47.104 0-208.896 0-416.768 0-625.664 0-98.304-71.68-168.96-169.984-168.96-209.92 0-418.816 0-628.736 0-81.92 0-148.48 52.224-164.864 131.072-2.048 11.264-3.072 23.552-3.072 34.816 0 210.944 0 420.864 0 631.808 0 92.16 72.704 165.888 161.792 165.888 18.432 0 31.744-12.288 32.768-28.672s-12.288-29.696-30.72-30.72c-4.096 0-8.192 0-12.288-1.024-50.176-7.168-86.016-43.008-90.112-93.184-3.072-23.552-2.048-47.104-2.048-71.68zM934.912 612.864c-282.624 0-564.224 0-845.824 0 0-4.096 0-8.192 0-11.264 0-164.864 0-329.728 0-495.616 0-65.536 44.032-109.568 110.592-109.568 208.896 0 416.768 0 625.664 0 10.24 0 20.48 1.024 29.696 3.072 49.152 11.264 80.896 52.224 80.896 104.448 0 165.888 0 331.776 0 497.664-1.024 3.072-1.024 7.168-1.024 11.264zM466.944 878.080c0 16.384 0 31.744 0 48.128 0 21.504 12.288 34.816 30.72 34.816 17.408 0 29.696-13.312 29.696-33.792 0-32.768 0-64.512 0-97.28 0-20.48-12.288-33.792-29.696-33.792-18.432 0-30.72 13.312-30.72 34.816-1.024 14.336 0 30.72 0 47.104zM330.752 877.056c0-17.408 0-33.792 0-51.2 0-19.456-13.312-32.768-30.72-31.744-17.408 0-29.696 13.312-29.696 31.744 0 33.792 0 67.584 0 102.4 0 18.432 13.312 31.744 29.696 31.744 17.408 0 29.696-13.312 29.696-31.744 1.024-16.384 1.024-33.792 1.024-51.2zM723.968 878.080c0-16.384 0-32.768 0-50.176 0-20.48-12.288-33.792-30.72-33.792-17.408 0-29.696 13.312-29.696 32.768 0 32.768 0 66.56 0 99.328 0 20.48 12.288 33.792 29.696 33.792s30.72-13.312 30.72-33.792c0-15.36 0-31.744 0-48.128z" />
<glyph unicode="&#xe909;" glyph-name="cash" d="M512 960c-282.624 0-512-229.376-512-512s229.376-512 512-512c282.624 0 512 229.376 512 512s-229.376 512-512 512zM512 4.608c-244.736 0-443.392 198.656-443.392 443.392s198.656 443.392 443.392 443.392c244.736 0 443.392-198.656 443.392-443.392s-198.656-443.392-443.392-443.392zM541.696 632.32c9.216-3.072 18.432-4.096 26.624-7.168 36.864-13.312 68.608-31.744 71.68-76.8 1.024-10.24 9.216-17.408 19.456-20.48 21.504-6.144 39.936 7.168 38.912 29.696 0 27.648-10.24 51.2-28.672 72.704-23.552 27.648-53.248 44.032-87.040 54.272-13.312 4.096-26.624 6.144-40.96 9.216 0 9.216 0 18.432 0 27.648 0 11.264-5.12 19.456-15.36 24.576-21.504 10.24-44.032-3.072-44.032-26.624 0-8.192 0-17.408 0-26.624-4.096-1.024-7.168-1.024-10.24-2.048-40.96-7.168-77.824-22.528-108.544-51.2-47.104-45.056-50.176-111.616-7.168-159.744 31.744-34.816 72.704-52.224 118.784-58.368 6.144-1.024 7.168-3.072 7.168-8.192 0-47.104 0-94.208 0-141.312 0-2.048 0-4.096 0-7.168-28.672 5.12-54.272 14.336-75.776 33.792-12.288 11.264-20.48 24.576-20.48 41.984 0 3.072-1.024 7.168-2.048 10.24-4.096 13.312-17.408 20.48-31.744 19.456-15.36-2.048-25.6-11.264-26.624-25.6-2.048-25.6 6.144-48.128 20.48-68.608 22.528-32.768 55.296-52.224 92.16-63.488 14.336-4.096 28.672-7.168 44.032-10.24 0-9.216 0-17.408 0-26.624 0-11.264 5.12-20.48 16.384-25.6 21.504-9.216 43.008 4.096 44.032 27.648 0 8.192 0 17.408 0 26.624 4.096 1.024 7.168 1.024 10.24 2.048 40.96 7.168 77.824 22.528 107.52 51.2 47.104 45.056 51.2 111.616 7.168 160.768-31.744 34.816-72.704 51.2-117.76 58.368-7.168 1.024-8.192 4.096-8.192 10.24 0 36.864 0 73.728 0 111.616 0 9.216 0 20.48 0 33.792zM481.28 480.768c-19.456 3.072-38.912 9.216-55.296 19.456-12.288 7.168-22.528 15.36-30.72 27.648-12.288 18.432-12.288 38.912 1.024 57.344 14.336 20.48 35.84 31.744 58.368 38.912 8.192 3.072 17.408 5.12 27.648 7.168-1.024-50.176-1.024-99.328-1.024-150.528zM542.72 415.232c22.528-4.096 45.056-11.264 63.488-24.576 9.216-6.144 17.408-14.336 23.552-23.552 12.288-17.408 12.288-37.888 0-55.296-14.336-21.504-35.84-32.768-59.392-40.96-8.192-3.072-17.408-5.12-27.648-7.168 0 51.2 0 100.352 0 151.552z" />
<glyph unicode="&#xe90a;" glyph-name="check" d="M355.328 53.76c-13.312 0-23.552 5.12-31.744 14.336-61.44 65.536-121.856 132.096-183.296 197.632-38.912 41.984-77.824 83.968-116.736 125.952-7.168 7.168-13.312 16.384-18.432 24.576-9.216 15.36-7.168 32.768 6.144 47.104 18.432 18.432 36.864 37.888 55.296 55.296 17.408 16.384 38.912 15.36 56.32-3.072 27.648-28.672 55.296-58.368 82.944-88.064 44.032-47.104 87.040-93.184 131.072-140.288 14.336-15.36 22.528-15.36 36.864-1.024 165.888 172.032 330.752 343.040 494.592 514.048 6.144 6.144 11.264 13.312 18.432 18.432 8.192 7.168 16.384 13.312 25.6 18.432 13.312 7.168 28.672 6.144 39.936-4.096 21.504-20.48 43.008-40.96 62.464-62.464 12.288-13.312 11.264-31.744 1.024-46.080-2.048-3.072-5.12-6.144-7.168-8.192-206.848-215.040-414.72-430.080-621.568-645.12-9.216-10.24-18.432-17.408-31.744-17.408z" />
<glyph unicode="&#xe90b;" glyph-name="clasif" d="M1024 446.976c0-135.168 0-270.336 0-405.504 0-24.576-7.168-45.056-26.624-60.416-12.288-10.24-26.624-16.384-43.008-16.384-258.048 0-517.12 0-775.168 0-22.528 0-46.080 2.048-67.584 6.144-39.936 8.192-68.608 31.744-88.064 67.584-13.312 26.624-19.456 53.248-21.504 81.92-2.048 13.312-2.048 26.624-2.048 39.936 0 166.912 0 333.824 0 500.736 0 41.984 31.744 77.824 74.752 79.872 34.816 1.024 69.632 0 104.448 0 5.12 0 10.24 0 16.384 0 8.192 0 13.312 3.072 15.36 12.288 1.024 4.096 1.024 9.216 1.024 13.312 0 30.72 0 62.464 0 93.184 0 33.792 22.528 62.464 54.272 69.632 7.168 2.048 14.336 2.048 21.504 2.048 220.16 0 440.32 0 661.504 0 41.984 0 76.8-31.744 75.776-75.776 0-51.2 0-101.376 0-152.576-1.024-84.992-1.024-171.008-1.024-256zM974.848 451.072c0 120.832 0 241.664 0 362.496 0 7.168 0 13.312-2.048 20.48-7.168 30.72-31.744 49.152-63.488 49.152-193.536 0-388.096 0-581.632 0-2.048 0-3.072 0-5.12 0-15.36 0-27.648-6.144-38.912-16.384-15.36-14.336-21.504-32.768-21.504-54.272 0-209.92 0-419.84 0-630.784 0-19.456-2.048-38.912-4.096-58.368-3.072-25.6-8.192-51.2-12.288-76.8-3.072-23.552 3.072-29.696 26.624-29.696 158.72 0 317.44 0 476.16 0 54.272 0 108.544 0 161.792 0 9.216 0 20.48 2.048 28.672 6.144 24.576 12.288 35.84 33.792 35.84 60.416 0 123.904 0 245.76 0 367.616zM215.040 425.472c0 76.8 0 153.6 0 229.376 0 8.192 0 15.36-1.024 23.552-1.024 9.216-6.144 13.312-15.36 13.312-30.72 0-61.44 1.024-92.16 1.024-18.432 0-32.768-8.192-41.984-23.552-10.24-18.432-14.336-37.888-14.336-58.368 0-144.384-1.024-288.768-1.024-433.152 0-38.912 9.216-75.776 25.6-110.592 10.24-21.504 24.576-39.936 50.176-45.056 14.336-3.072 29.696-3.072 44.032-1.024 10.24 1.024 16.384 7.168 20.48 16.384 2.048 4.096 3.072 8.192 4.096 12.288 15.36 52.224 19.456 105.472 20.48 159.744 2.048 71.68 1.024 144.384 1.024 216.064zM621.568 594.432c76.8 0 153.6 0 230.4 0 4.096 0 8.192 0 12.288-1.024 16.384-4.096 23.552-18.432 16.384-33.792-2.048-4.096-7.168-8.192-12.288-10.24-6.144-2.048-13.312-3.072-19.456-3.072-152.576 0-305.152 0-458.752 0-20.48 0-32.768 16.384-25.6 34.816 3.072 7.168 8.192 12.288 16.384 13.312 4.096 1.024 7.168 1.024 11.264 1.024 77.824-1.024 153.6-1.024 229.376-1.024 0 0 0 0 0 0zM617.472 354.816c76.8 0 153.6 0 230.4 0 4.096 0 8.192 0 12.288-1.024 16.384-4.096 24.576-18.432 17.408-33.792-2.048-4.096-7.168-8.192-12.288-10.24-6.144-2.048-13.312-3.072-19.456-3.072-152.576 0-305.152 0-458.752 0-20.48 0-32.768 16.384-25.6 34.816 3.072 7.168 8.192 12.288 16.384 13.312 4.096 1.024 8.192 1.024 12.288 1.024 75.776-2.048 151.552-2.048 227.328-1.024 0-1.024 0-1.024 0 0zM618.496 230.912c76.8 0 153.6 0 230.4 0 4.096 0 8.192 0 12.288-1.024 16.384-4.096 23.552-18.432 17.408-33.792-2.048-6.144-8.192-10.24-14.336-11.264s-12.288-2.048-17.408-2.048c-152.576 0-306.176 0-458.752 0-20.48 0-31.744 15.36-25.6 33.792 3.072 9.216 9.216 13.312 18.432 14.336 3.072 0 6.144 0 9.216 0 75.776 0 151.552 0 228.352 0 0 0 0 0 0 0zM621.568 716.288c76.8 0 153.6 0 231.424 0 4.096 0 7.168 0 11.264-1.024 15.36-4.096 21.504-14.336 19.456-29.696-1.024-7.168-6.144-13.312-13.312-14.336-7.168-2.048-15.36-3.072-22.528-3.072-89.088 0-177.152 0-266.24 0-62.464 0-124.928 0-188.416 0-5.12 0-10.24 1.024-15.36 3.072-11.264 5.12-15.36 14.336-13.312 25.6s10.24 18.432 22.528 18.432c3.072 0 5.12 0 8.192 0 74.752 1.024 150.528 1.024 226.304 1.024 0 0 0 0 0 0zM617.472 472.576c76.8 0 154.624 0 231.424 0 4.096 0 7.168 0 11.264-1.024 15.36-3.072 21.504-14.336 19.456-29.696-1.024-7.168-5.12-12.288-11.264-14.336s-12.288-3.072-18.432-3.072c-154.624 0-308.224 0-462.848 0-19.456 0-30.72 16.384-24.576 32.768 3.072 9.216 9.216 14.336 18.432 14.336 3.072 0 7.168 0 10.24 0 74.752 0 150.528 0 226.304 1.024 0-1.024 0-1.024 0 0z" />
<glyph unicode="&#xe90c;" glyph-name="close" d="M360.448 450.048c-3.072 2.048-7.168 4.096-10.24 7.168-111.616 110.592-222.208 221.184-332.8 332.8-6.144 6.144-11.264 14.336-14.336 22.528-4.096 9.216-1.024 18.432 6.144 24.576 36.864 38.912 74.752 76.8 112.64 114.688 9.216 9.216 19.456 10.24 29.696 4.096 6.144-3.072 12.288-8.192 17.408-13.312 111.616-110.592 222.208-222.208 332.8-332.8 3.072-3.072 5.12-5.12 8.192-9.216 3.072 3.072 6.144 5.12 8.192 8.192 112.64 111.616 224.256 223.232 335.872 334.848 6.144 6.144 14.336 10.24 22.528 14.336 9.216 4.096 18.432 1.024 24.576-6.144 37.888-37.888 76.8-76.8 114.688-114.688 7.168-7.168 9.216-16.384 5.12-24.576s-8.192-16.384-14.336-22.528c-110.592-111.616-222.208-222.208-333.824-333.824-2.048-2.048-6.144-4.096-9.216-6.144 0-1.024 0-3.072 0-4.096 3.072-2.048 6.144-3.072 8.192-5.12 111.616-111.616 223.232-223.232 334.848-334.848 6.144-6.144 11.264-14.336 14.336-22.528 4.096-9.216 1.024-18.432-5.12-24.576-37.888-37.888-75.776-76.8-114.688-114.688-9.216-9.216-23.552-10.24-35.84-2.048-4.096 3.072-8.192 7.168-12.288 10.24-110.592 110.592-222.208 222.208-332.8 332.8-2.048 2.048-4.096 6.144-6.144 9.216-1.024 0-3.072 0-4.096 0-2.048-3.072-3.072-6.144-6.144-9.216-110.592-110.592-222.208-221.184-332.8-332.8-3.072-3.072-7.168-7.168-11.264-10.24-13.312-10.24-28.672-9.216-39.936 3.072-36.864 36.864-72.704 72.704-109.568 109.568-12.288 12.288-13.312 26.624-3.072 40.96 3.072 4.096 6.144 7.168 9.216 10.24 111.616 111.616 223.232 223.232 334.848 334.848 3.072 3.072 5.12 5.12 9.216 9.216z" />
<glyph unicode="&#xe90d;" glyph-name="datos" d="M57.344 37.376c323.584 0 644.096 0 966.656 0 0-19.456 0-37.888 0-57.344-340.992 0-681.984 0-1024 0 0 312.32 0 623.616 0 935.936 18.432 0 37.888 0 57.344 0 0-291.84 0-584.704 0-878.592zM873.472 736.768c0-80.896 0-160.768 0-240.64-25.6 0-51.2 0-77.824 0 0 20.48 0 40.96 0 60.416-1.024 0-2.048 1.024-2.048 1.024-60.416-76.8-119.808-153.6-180.224-231.424-47.104 54.272-93.184 107.52-140.288 162.816-91.136-92.16-181.248-184.32-272.384-276.48-19.456 20.48-36.864 38.912-52.224 56.32 107.52 108.544 218.112 221.184 329.728 333.824 45.056-51.2 88.064-102.4 132.096-153.6 37.888 49.152 75.776 97.28 113.664 146.432 0 1.024-1.024 1.024-1.024 2.048-11.264-4.096-23.552-8.192-35.84-13.312-9.216 23.552-18.432 48.128-27.648 72.704 71.68 25.6 142.336 52.224 214.016 79.872z" />
<glyph unicode="&#xe90e;" glyph-name="docs" d="M137.216 448c0 119.808 0 238.592 0 358.4 0 44.032 14.336 81.92 45.056 113.664 27.648 26.624 60.416 39.936 98.304 39.936 69.632 0 139.264 0 208.896 0 26.624 0 50.176-10.24 68.608-29.696 100.352-104.448 199.68-209.92 300.032-314.368 18.432-19.456 27.648-41.984 27.648-68.608 0-20.48 0-40.96 0-60.416 0-133.12 0-265.216 0-398.336 0-48.128-17.408-89.088-54.272-119.808-24.576-21.504-54.272-31.744-87.040-32.768-155.648 0-311.296 0-466.944 0-65.536 0-122.88 48.128-136.192 113.664-3.072 13.312-4.096 27.648-4.096 40.96 0 119.808 0 238.592 0 357.376zM483.328 899.584c-2.048 0-4.096 0-5.12 0-64.512 0-130.048 0-194.56 0-19.456 0-35.84-6.144-51.2-17.408-24.576-19.456-35.84-44.032-35.84-75.776 0-238.592 0-478.208 0-716.8 0-2.048 0-3.072 0-5.12 0-45.056 39.936-89.088 89.088-88.064 151.552 1.024 302.080 0 453.632 0 6.144 0 11.264 0 17.408 1.024 41.984 8.192 72.704 46.080 72.704 89.088 0 148.48 0 295.936 0 444.416 0 2.048 0 4.096 0 7.168-3.072 0-6.144 0-9.216 0-65.536 0-130.048 0-195.584 0-29.696 0-56.32 9.216-79.872 26.624-39.936 29.696-60.416 70.656-60.416 119.808-1.024 68.608 0 137.216 0 204.8-1.024 4.096-1.024 6.144-1.024 10.24zM540.672 862.72c0-3.072 0-4.096 0-5.12 0-56.32 0-113.664 0-169.984 0-46.080 39.936-90.112 90.112-89.088 51.2 1.024 102.4 0 153.6 0 2.048 0 5.12 0 8.192 0-83.968 89.088-166.912 176.128-251.904 264.192zM512 86.528c-57.344 0-113.664 0-171.008 0-29.696 0-35.84 27.648-28.672 44.032 4.096 9.216 11.264 14.336 20.48 15.36 4.096 1.024 7.168 1.024 11.264 1.024 111.616 0 223.232 0 333.824 0 5.12 0 10.24 0 15.36-2.048 13.312-4.096 20.48-16.384 19.456-31.744s-11.264-25.6-25.6-26.624c-3.072 0-6.144 0-9.216 0-54.272 0-109.568 0-165.888 0zM512 387.584c-57.344 0-113.664 0-171.008 0-24.576 0-38.912 22.528-27.648 45.056 4.096 8.192 10.24 13.312 19.456 14.336 4.096 1.024 8.192 1.024 12.288 1.024 110.592 0 222.208 0 332.8 0 5.12 0 10.24 0 15.36-2.048 13.312-4.096 20.48-16.384 19.456-31.744-2.048-15.36-11.264-25.6-25.6-26.624-4.096 0-9.216 0-13.312 0-53.248 0-107.52 0-161.792 0zM512 237.056c-57.344 0-113.664 0-171.008 0-24.576 0-38.912 22.528-27.648 45.056 4.096 8.192 10.24 13.312 19.456 14.336 4.096 1.024 8.192 1.024 12.288 1.024 110.592 0 222.208 0 332.8 0 5.12 0 10.24 0 15.36-2.048 13.312-4.096 20.48-16.384 19.456-31.744-2.048-15.36-11.264-25.6-25.6-26.624-3.072 0-6.144 0-9.216 0-54.272 0-110.592 0-165.888 0z" />
<glyph unicode="&#xe90f;" glyph-name="edit" d="M315.392 54.784c-66.56 65.536-136.192 134.144-205.824 203.776 175.104 177.152 351.232 353.28 524.288 527.36 70.656-69.632 140.288-138.24 210.944-208.896-176.128-174.080-353.28-348.16-529.408-522.24zM901.12 636.416c-70.656 69.632-139.264 138.24-209.92 207.872 16.384 15.36 31.744 31.744 47.104 47.104 13.312 13.312 27.648 27.648 40.96 40.96 37.888 36.864 93.184 36.864 131.072 0 30.72-30.72 61.44-61.44 92.16-92.16 28.672-28.672 29.696-71.68 2.048-100.352-33.792-34.816-68.608-68.608-103.424-103.424 0 0-1.024-1.024 0 0zM260.096-6.656c-29.696-7.168-59.392-14.336-88.064-21.504-45.056-11.264-90.112-21.504-135.168-32.768-3.072-1.024-5.12-1.024-8.192-2.048-17.408-3.072-31.744 10.24-28.672 27.648 16.384 77.824 33.792 154.624 51.2 232.448 0 1.024 1.024 2.048 0 1.024 69.632-67.584 139.264-136.192 208.896-204.8z" />
<glyph unicode="&#xe910;" glyph-name="flag2" d="M153.6 10.752c15.36 0 29.696 0 44.032 0 22.528 0 35.84-13.312 35.84-35.84s-13.312-35.84-35.84-35.84c-54.272 0-108.544 0-163.84 0-21.504 0-34.816 14.336-34.816 35.84 0 22.528 13.312 35.84 34.816 36.864 16.384 0 33.792 0 51.2 0 0 5.12 0 8.192 0 12.288 0 277.504 0 555.008 0 832.512 0 8.192 2.048 15.36 4.096 23.552 3.072 9.216 10.24 15.36 18.432 20.48 74.752 38.912 153.6 61.44 239.616 59.392 70.656-5.12 134.144-24.576 194.56-54.272 30.72-14.336 60.416-31.744 92.16-44.032 114.688-44.032 225.28-31.744 330.752 28.672 14.336 8.192 37.888 6.144 45.056-5.12 8.192-13.312 13.312-28.672 6.144-45.056-15.36-33.792-29.696-68.608-45.056-103.424-21.504-49.152-43.008-98.304-64.512-147.456-2.048-5.12-2.048-8.192 1.024-13.312 36.864-55.296 72.704-111.616 109.568-166.912 13.312-20.48 8.192-44.032-13.312-55.296-75.776-39.936-155.648-63.488-242.688-60.416-68.608 2.048-132.096 22.528-192.512 52.224-28.672 14.336-56.32 29.696-86.016 41.984-98.304 39.936-195.584 37.888-291.84-5.12-9.216-4.096-19.456-9.216-28.672-13.312-6.144-3.072-8.192-6.144-8.192-13.312 0-66.56 0-134.144 0-200.704 0-44.032 0-89.088 0-133.12 0-4.096 0-7.168 0-11.264zM915.456 791.040c-7.168-2.048-12.288-4.096-18.432-6.144-58.368-20.48-117.76-26.624-178.176-19.456-58.368 7.168-113.664 26.624-165.888 53.248-24.576 12.288-48.128 25.6-72.704 35.84-67.584 28.672-138.24 37.888-210.944 23.552-39.936-8.192-76.8-23.552-112.64-39.936-6.144-3.072-8.192-6.144-8.192-13.312 0-123.904 0-246.784 0-370.688 0-3.072 0-6.144 0-10.24 5.12 2.048 8.192 3.072 11.264 5.12 57.344 24.576 116.736 38.912 178.176 37.888 86.016-1.024 163.84-28.672 238.592-69.632 95.232-52.224 195.584-68.608 301.056-37.888 18.432 5.12 34.816 12.288 53.248 19.456-2.048 4.096-3.072 5.12-4.096 7.168-31.744 51.2-64.512 101.376-96.256 152.576-4.096 6.144-5.12 14.336-5.12 21.504 0 6.144 3.072 13.312 6.144 19.456 26.624 60.416 53.248 120.832 80.896 181.248 1.024 4.096 2.048 6.144 3.072 10.24z" />
<glyph unicode="&#xe911;" glyph-name="hand" d="M429.056 689.664c25.6 15.36 52.224 19.456 78.848 7.168 26.624-11.264 43.008-31.744 51.2-60.416 27.648 15.36 56.32 17.408 84.992 3.072s44.032-37.888 46.080-70.656c16.384 4.096 31.744 5.12 48.128 1.024 39.936-10.24 66.56-50.176 60.416-91.136-2.048-16.384 1.024-30.72 4.096-46.080 15.36-76.8 16.384-153.6 12.288-231.424-3.072-45.056-20.48-82.944-48.128-117.76-4.096-5.12-5.12-9.216-5.12-15.36 0-22.528 1.024-45.056-1.024-67.584-2.048-36.864-32.768-64.512-69.632-64.512-112.64 0-225.28 0-338.944 0-39.936 0-71.68 32.768-71.68 72.704 0 18.432 0 37.888 0 56.32 0 6.144-2.048 11.264-6.144 16.384-31.744 31.744-55.296 68.608-63.488 112.64-7.168 34.816-5.12 70.656 3.072 105.472 6.144 25.6 22.528 45.056 41.984 61.44 4.096 4.096 6.144 7.168 6.144 13.312 0 166.912 0 334.848 0 501.76 0 43.008 28.672 75.776 70.656 82.944 50.176 8.192 95.232-29.696 95.232-79.872 0-59.392 0-118.784 0-179.2 1.024-3.072 1.024-6.144 1.024-10.24zM483.328 292.352c-2.048-2.048-3.072-3.072-4.096-4.096-20.48-20.48-39.936-40.96-60.416-61.44-15.36-15.36-31.744-28.672-52.224-37.888-9.216-4.096-19.456-1.024-23.552 7.168-5.12 10.24-1.024 19.456 8.192 25.6 9.216 5.12 18.432 11.264 26.624 18.432 40.96 33.792 75.776 73.728 108.544 114.688 18.432 23.552 36.864 48.128 49.152 74.752 6.144 13.312 6.144 25.6 1.024 38.912-3.072 9.216-10.24 14.336-19.456 15.36-6.144 1.024-12.288 0-17.408-1.024-17.408-4.096-32.768-12.288-47.104-22.528-57.344-43.008-114.688-86.016-172.032-129.024-15.36-11.264-25.6-26.624-30.72-45.056-6.144-26.624-7.168-53.248-3.072-79.872 8.192-44.032 31.744-78.848 63.488-108.544 5.12-5.12 8.192-10.24 8.192-17.408 0-22.528 0-45.056 0-67.584 0-24.576 15.36-39.936 39.936-39.936 109.568 0 219.136 0 329.728 0 4.096 0 7.168 0 11.264 1.024 16.384 4.096 25.6 17.408 26.624 36.864 0 22.528 0 46.080 0 68.608 0 6.144 2.048 11.264 5.12 16.384 8.192 10.24 15.36 20.48 22.528 30.72 14.336 20.48 22.528 44.032 24.576 68.608 4.096 50.176 5.12 99.328 1.024 149.504-1.024 17.408-4.096 34.816-7.168 52.224-3.072-2.048-3.072-4.096-4.096-6.144-13.312-38.912-27.648-77.824-40.96-116.736-22.528-64.512-100.352-72.704-138.24-32.768-11.264 11.264-18.432 24.576-22.528 40.96-30.72-10.24-57.344-7.168-82.944 10.24zM300.032 393.728c27.648 20.48 53.248 40.96 79.872 59.392 8.192 6.144 11.264 11.264 11.264 21.504-1.024 135.168-1.024 269.312 0 404.48 0 27.648-24.576 49.152-54.272 43.008-22.528-4.096-36.864-22.528-36.864-48.128 0-157.696 0-315.392 0-473.088 0-1.024 0-4.096 0-7.168zM759.808 488.96c-1.024 16.384-8.192 28.672-20.48 37.888-25.6 18.432-60.416 2.048-67.584-20.48-14.336-47.104-31.744-93.184-48.128-139.264-6.144-17.408-13.312-34.816-20.48-51.2-9.216-21.504 3.072-49.152 25.6-58.368 24.576-10.24 52.224 2.048 61.44 27.648 21.504 61.44 43.008 122.88 64.512 184.32 2.048 6.144 3.072 12.288 5.12 19.456zM507.904 318.976c3.072-1.024 7.168-3.072 10.24-4.096 22.528-7.168 48.128 4.096 55.296 26.624 14.336 43.008 29.696 84.992 44.032 128 9.216 27.648 19.456 55.296 28.672 83.968 5.12 16.384 5.12 32.768-9.216 45.056-26.624 23.552-65.536 16.384-77.824-18.432-5.12-14.336-9.216-28.672-15.36-43.008-3.072-8.192-4.096-15.36 4.096-20.48 2.048-2.048 4.096-4.096 6.144-7.168 18.432-23.552 28.672-50.176 19.456-79.872-4.096-14.336-12.288-28.672-20.48-41.984-13.312-23.552-29.696-45.056-45.056-68.608zM428.032 487.936c2.048 1.024 4.096 2.048 6.144 3.072 19.456 13.312 39.936 24.576 63.488 28.672 2.048 0 4.096 3.072 5.12 5.12 7.168 19.456 15.36 37.888 15.36 59.392 0 13.312 3.072 26.624 4.096 39.936 0 25.6-21.504 46.080-48.128 45.056-22.528 0-46.080-16.384-46.080-46.080 1.024-43.008 0-84.992 0-128-1.024-2.048 0-4.096 0-7.168z" />
<glyph unicode="&#xe912;" glyph-name="home" d="M583.68-14.848c0 83.968 0 166.912 0 250.88-47.104 0-95.232 0-144.384 0 0-4.096 0-8.192 0-12.288 0-56.32 0-113.664 0-169.984 0-3.072 0-5.12 0-8.192 0-17.408-10.24-28.672-24.576-28.672-15.36 0-24.576 11.264-24.576 28.672 0 70.656 0 141.312 0 211.968 0 19.456 9.216 28.672 28.672 28.672 62.464 0 123.904 0 186.368 0 19.456 0 28.672-10.24 28.672-29.696 0-86.016 0-173.056 0-259.072 0-4.096 0-8.192 0-12.288 89.088 0 176.128 0 266.24 0 0 5.12 0 9.216 0 13.312 0 138.24 0 277.504 0 415.744 0 5.12 0 9.216 0 14.336 2.048 13.312 11.264 21.504 23.552 22.528 12.288 0 22.528-8.192 24.576-21.504 1.024-4.096 0-7.168 0-11.264 0-150.528 0-301.056 0-451.584 0-23.552-8.192-31.744-31.744-31.744-270.336 0-541.696 0-812.032 0-22.528 0-31.744 9.216-31.744 31.744 0 209.92 0 419.84 0 629.76 0 13.312 5.12 22.528 15.36 30.72 136.192 108.544 270.336 216.064 404.48 323.584 15.36 12.288 24.576 12.288 39.936 0 134.144-107.52 269.312-216.064 403.456-323.584 9.216-7.168 15.36-15.36 13.312-26.624-3.072-19.456-24.576-26.624-41.984-14.336-24.576 19.456-48.128 38.912-72.704 57.344-105.472 86.016-211.968 171.008-317.44 256-1.024 1.024-3.072 2.048-5.12 4.096-21.504-16.384-41.984-33.792-63.488-50.176-104.448-83.968-209.92-167.936-314.368-251.904-7.168-6.144-10.24-11.264-10.24-21.504 0-193.536 0-387.072 0-580.608 0-10.24 2.048-13.312 12.288-13.312 144.384 0 289.792 0 434.176 0 5.12-1.024 9.216-1.024 13.312-1.024z" />
<glyph unicode="&#xe913;" glyph-name="home2" d="M143.36 438.784c-5.12 0-9.216 0-12.288 0-35.84 0-70.656 0-106.496 0-17.408 0-27.648 11.264-23.552 26.624 1.024 5.12 5.12 10.24 9.216 13.312 92.16 80.896 184.32 160.768 277.504 241.664 67.584 59.392 135.168 117.76 202.752 177.152 17.408 15.36 25.6 15.36 43.008 0 149.504-131.072 299.008-261.12 449.536-391.168 10.24-9.216 20.48-18.432 30.72-26.624 9.216-8.192 12.288-18.432 8.192-26.624-4.096-10.24-13.312-13.312-23.552-13.312-34.816 0-69.632 0-105.472 0-4.096 0-8.192 0-13.312 0 0-5.12 0-9.216 0-13.312 0-135.168 0-271.36 0-406.528 0-4.096 0-8.192 0-12.288-1.024-10.24-8.192-17.408-18.432-18.432-4.096 0-8.192 0-12.288 0-225.28 0-450.56 0-674.816 0-24.576 0-30.72 5.12-30.72 30.72 0 135.168 0 271.36 0 406.528 0 3.072 0 7.168 0 12.288zM942.080 481.792c0 1.024 1.024 1.024 1.024 2.048-143.36 124.928-287.744 249.856-431.104 374.784-144.384-124.928-287.744-249.856-431.104-374.784 4.096-2.048 7.168-2.048 10.24-2.048 24.576 0 48.128 0 72.704 0 14.336 0 21.504-8.192 22.528-21.504 0-4.096 0-7.168 0-11.264 0-135.168 0-270.336 0-404.48 0-4.096 0-8.192 0-12.288 218.112 0 434.176 0 651.264 0 0 5.12 0 9.216 0 13.312 0 136.192 0 272.384 0 408.576 0 21.504 6.144 28.672 27.648 28.672 25.6-1.024 51.2-1.024 76.8-1.024zM512 482.816c21.504 22.528 47.104 36.864 76.8 43.008 76.8 15.36 154.624-43.008 161.792-120.832 4.096-41.984-13.312-76.8-36.864-108.544-25.6-34.816-59.392-63.488-92.16-91.136-30.72-26.624-61.44-53.248-93.184-79.872-12.288-10.24-21.504-10.24-33.792 0-45.056 38.912-91.136 77.824-136.192 117.76-31.744 27.648-59.392 59.392-75.776 99.328-33.792 79.872 22.528 174.080 108.544 184.32 45.056 5.12 83.968-8.192 116.736-39.936 1.024-1.024 2.048-2.048 4.096-4.096zM509.952 165.376c4.096 3.072 5.12 3.072 6.144 4.096 33.792 28.672 67.584 58.368 101.376 87.040 29.696 25.6 58.368 53.248 77.824 88.064 9.216 16.384 15.36 33.792 13.312 52.224-4.096 41.984-33.792 75.776-73.728 84.992-38.912 9.216-78.848-8.192-101.376-43.008-13.312-20.48-29.696-20.48-43.008 0-23.552 34.816-55.296 50.176-97.28 44.032-50.176-8.192-87.040-61.44-74.752-109.568 6.144-26.624 21.504-49.152 40.96-68.608 49.152-46.080 99.328-92.16 150.528-139.264z" />
<glyph unicode="&#xe914;" glyph-name="mail" d="M892.928 837.12c39.936 0 73.728-14.336 100.352-45.056 18.432-20.48 28.672-45.056 30.72-73.728 0-4.096 0-8.192 0-13.312 0-172.032 0-344.064 0-516.096 0-39.936-14.336-72.704-44.032-99.328-22.528-20.48-49.152-30.72-78.848-31.744-3.072 0-5.12 0-8.192 0-253.952 0-507.904 0-761.856 0-39.936 0-73.728 14.336-99.328 44.032-20.48 22.528-30.72 49.152-30.72 79.872 0 114.688 0 230.4 0 345.088 0 59.392 0 119.808 0 179.2 0 61.44 40.96 112.64 100.352 125.952 10.24 2.048 20.48 3.072 30.72 3.072 125.952 2.048 633.856 2.048 760.832 2.048zM132.096 773.632c-12.288 0-24.576-2.048-35.84-8.192-22.528-13.312-32.768-33.792-32.768-59.392 0-171.008 0-343.040 0-514.048 0-3.072 0-5.12 0-8.192 0-12.288 4.096-23.552 11.264-33.792 14.336-19.456 32.768-26.624 56.32-26.624 252.928 0 506.88 0 759.808 0 1.024 0 2.048 0 3.072 0 38.912 1.024 65.536 27.648 65.536 66.56 0 73.728 0 417.792 0 516.096 0 14.336-3.072 28.672-12.288 40.96-14.336 19.456-32.768 26.624-56.32 26.624-124.928-1.024-631.808-1.024-758.784 0zM513.024 417.28c12.288 11.264 24.576 21.504 35.84 32.768 100.352 90.112 200.704 179.2 301.056 269.312 9.216 8.192 20.48 13.312 32.768 10.24s19.456-11.264 22.528-22.528c3.072-12.288 0-23.552-10.24-31.744-17.408-16.384-35.84-31.744-54.272-48.128-62.464-56.32-125.952-112.64-188.416-167.936-1.024-1.024-2.048-1.024-3.072-2.048 5.12-4.096 8.192-8.192 12.288-11.264 77.824-73.728 155.648-147.456 233.472-220.16 10.24-9.216 14.336-20.48 10.24-33.792-4.096-12.288-12.288-20.48-25.6-22.528-11.264-2.048-20.48 2.048-27.648 9.216-17.408 16.384-33.792 31.744-51.2 48.128-64.512 61.44-130.048 122.88-194.56 184.32-1.024 1.024-2.048 2.048-4.096 3.072-13.312-11.264-26.624-23.552-39.936-34.816-9.216-8.192-18.432-16.384-27.648-24.576-15.36-13.312-30.72-12.288-46.080 0-20.48 18.432-40.96 36.864-61.44 55.296-1.024 1.024-2.048 1.024-3.072 2.048-8.192-7.168-15.36-14.336-22.528-21.504-75.776-72.704-151.552-143.36-227.328-214.016-16.384-15.36-39.936-12.288-51.2 6.144-7.168 13.312-5.12 28.672 6.144 39.936 24.576 23.552 50.176 47.104 74.752 69.632 56.32 52.224 112.64 104.448 168.96 156.672 1.024 1.024 2.048 2.048 4.096 3.072-2.048 1.024-4.096 2.048-5.12 3.072-79.872 70.656-159.744 142.336-239.616 212.992-7.168 6.144-14.336 12.288-15.36 22.528-3.072 13.312 3.072 26.624 14.336 33.792 12.288 7.168 26.624 6.144 37.888-4.096 14.336-12.288 28.672-25.6 44.032-38.912 75.776-67.584 151.552-135.168 227.328-202.752 20.48-18.432 41.984-37.888 62.464-56.32 4.096-1.024 7.168-3.072 10.24-5.12z" />
<glyph unicode="&#xe915;" glyph-name="menu" d="M999.424 698.88h-974.848c-13.312 0-24.576 11.264-24.576 24.576v128c0 13.312 11.264 24.576 24.576 24.576h973.824c13.312 0 24.576-11.264 24.576-24.576v-128c1.024-13.312-10.24-24.576-23.552-24.576zM999.424 11.776h-974.848c-13.312 0-24.576 11.264-24.576 24.576v128c0 13.312 11.264 24.576 24.576 24.576h973.824c13.312 0 24.576-11.264 24.576-24.576v-128c1.024-13.312-10.24-24.576-23.552-24.576zM999.424 355.84h-974.848c-13.312 0-24.576 10.24-24.576 24.576v128c0 13.312 11.264 24.576 24.576 24.576h973.824c13.312 0 24.576-11.264 24.576-24.576v-128c1.024-14.336-10.24-24.576-23.552-24.576z" />
<glyph unicode="&#xe916;" glyph-name="more" d="M512 960c-282.624 0-512-229.376-512-512s229.376-512 512-512 512 229.376 512 512-229.376 512-512 512zM512 4.608c-244.736 0-443.392 198.656-443.392 443.392s198.656 443.392 443.392 443.392 443.392-198.656 443.392-443.392-198.656-443.392-443.392-443.392zM713.728 489.984c-50.176 0-100.352 0-149.504 0-3.072 0-6.144 0-10.24 0 0 4.096 0 7.168 0 10.24 0 49.152 0 98.304 0 147.456 0 13.312-4.096 24.576-13.312 32.768-13.312 11.264-28.672 15.36-45.056 8.192s-25.6-20.48-25.6-38.912c0-50.176 0-99.328 0-149.504 0-3.072 0-6.144 0-10.24-4.096 0-7.168 0-10.24 0-49.152 0-98.304 0-148.48 0-13.312 0-23.552-4.096-32.768-13.312-11.264-13.312-14.336-28.672-7.168-45.056s19.456-24.576 37.888-24.576c50.176 0 100.352 0 149.504 0 3.072 0 6.144 0 10.24 0 0-4.096 0-7.168 0-10.24 0-49.152 0-98.304 0-147.456 0-13.312 4.096-25.6 14.336-33.792 13.312-11.264 28.672-13.312 44.032-7.168 16.384 7.168 24.576 20.48 24.576 37.888 0 50.176 0 100.352 0 150.528 0 3.072 0 6.144 0 10.24 5.12 0 8.192 0 11.264 0 48.128 0 97.28 0 145.408 0 7.168 0 14.336 1.024 20.48 4.096 17.408 7.168 27.648 27.648 23.552 46.080-2.048 18.432-18.432 31.744-38.912 32.768z" />
<glyph unicode="&#xe917;" glyph-name="noti" d="M564.224 877.056c13.312-2.048 25.6-4.096 37.888-6.144 51.2-10.24 97.28-29.696 136.192-66.56 26.624-25.6 46.080-56.32 61.44-91.136 18.432-41.984 28.672-86.016 35.84-131.072 8.192-52.224 15.36-105.472 24.576-157.696 9.216-53.248 21.504-105.472 46.080-153.6 12.288-24.576 27.648-48.128 47.104-68.608 14.336-15.36 19.456-32.768 14.336-54.272s-24.576-36.864-47.104-38.912c-4.096 0-7.168 0-11.264 0-71.68 0-143.36 0-215.040 0-3.072 0-5.12 0-8.192 0-3.072-58.368-25.6-104.448-72.704-139.264-33.792-24.576-71.68-35.84-113.664-33.792-91.136 5.12-162.816 79.872-164.864 173.056-2.048 0-5.12 0-7.168 0-71.68 0-143.36 0-215.040 0-19.456 0-35.84 6.144-47.104 22.528-15.36 20.48-14.336 47.104 2.048 66.56 14.336 17.408 28.672 34.816 39.936 54.272 21.504 36.864 35.84 77.824 44.032 119.808 9.216 44.032 16.384 89.088 23.552 134.144 8.192 55.296 15.36 111.616 32.768 165.888 13.312 41.984 30.72 80.896 59.392 114.688 30.72 36.864 69.632 60.416 114.688 75.776 22.528 7.168 46.080 12.288 69.632 14.336 4.096 0 5.12 2.048 5.12 6.144 0 9.216 0 18.432 0 27.648 1.024 28.672 25.6 51.2 54.272 51.2s52.224-23.552 53.248-52.224c0-12.288 0-22.528 0-32.768zM811.008 217.6c-1.024 2.048-1.024 3.072-2.048 4.096-26.624 53.248-43.008 110.592-53.248 168.96-9.216 56.32-17.408 113.664-26.624 169.984-6.144 36.864-14.336 73.728-28.672 108.544-20.48 49.152-56.32 79.872-108.544 92.16-50.176 11.264-101.376 11.264-151.552 3.072-24.576-4.096-48.128-13.312-68.608-28.672-26.624-19.456-43.008-47.104-54.272-76.8-15.36-40.96-22.528-82.944-28.672-125.952-8.192-51.2-15.36-103.424-24.576-154.624-9.216-54.272-25.6-107.52-50.176-157.696-1.024-1.024-1.024-2.048-1.024-4.096 199.68 1.024 398.336 1.024 598.016 1.024zM443.392 109.056c2.048-25.6 13.312-45.056 34.816-56.32 23.552-13.312 48.128-11.264 70.656 4.096 18.432 12.288 27.648 29.696 28.672 52.224-45.056 0-89.088 0-134.144 0z" />
<glyph unicode="&#xe918;" glyph-name="plan" d="M784.384 877.056c-230.4 0-457.728 0-687.104 0 0-285.696 0-571.392 0-859.136 4.096 0 7.168 0 11.264 0 100.352 0 199.68 0 300.032 0 21.504 0 36.864-10.24 43.008-28.672 8.192-25.6-9.216-52.224-37.888-54.272-3.072 0-6.144 0-9.216 0-113.664 0-228.352 0-342.016 0-29.696 0-49.152 18.432-49.152 49.152 1.024 310.272 0 619.52 0 929.792 0 23.552 12.288 39.936 32.768 44.032 5.12 2.048 9.216 2.048 13.312 2.048 253.952 0 507.904 0 761.856 0 27.648 0 45.056-17.408 45.056-45.056 0-164.864 0-329.728 0-494.592 0-20.48-10.24-35.84-28.672-41.984-16.384-5.12-33.792 0-45.056 13.312-7.168 8.192-9.216 18.432-9.216 29.696 0 33.792 0 67.584 0 101.376 0 113.664 0 227.328 0 340.992 1.024 5.12 1.024 9.216 1.024 13.312zM711.68 61.952c35.84 38.912 69.632 77.824 104.448 116.736 39.936 44.032 78.848 88.064 118.784 132.096 14.336 15.36 30.72 20.48 48.128 13.312 26.624-10.24 34.816-43.008 15.36-65.536-12.288-14.336-24.576-27.648-37.888-41.984-69.632-78.848-140.288-157.696-210.944-236.544-5.12-6.144-11.264-11.264-18.432-15.36-17.408-8.192-32.768-4.096-46.080 9.216-18.432 17.408-36.864 35.84-55.296 53.248-28.672 27.648-57.344 55.296-86.016 82.944-21.504 21.504-17.408 54.272 8.192 67.584 15.36 8.192 29.696 6.144 44.032-3.072 3.072-2.048 5.12-4.096 8.192-7.168 34.816-32.768 68.608-66.56 103.424-99.328 0-2.048 2.048-3.072 4.096-6.144zM446.464 637.44c-60.416 0-120.832 0-181.248 0-22.528 0-38.912 12.288-44.032 32.768-5.12 22.528 11.264 46.080 34.816 48.128 3.072 0 7.168 0 10.24 0 119.808 0 240.64 0 360.448 0 22.528 0 37.888-10.24 44.032-27.648 9.216-26.624-11.264-53.248-40.96-54.272-24.576 0-50.176 0-74.752 0-35.84 1.024-71.68 1.024-108.544 1.024zM447.488 410.112c-60.416 0-121.856 0-182.272 0-23.552 0-39.936 12.288-44.032 32.768-5.12 21.504 9.216 44.032 31.744 48.128 5.12 1.024 9.216 1.024 14.336 1.024 119.808 0 239.616 0 360.448 0 23.552 0 38.912-10.24 45.056-29.696 7.168-23.552-9.216-48.128-32.768-52.224-5.12-1.024-9.216-1.024-14.336-1.024-59.392 1.024-118.784 1.024-178.176 1.024zM316.416 190.976c-17.408 0-34.816 0-52.224 0-25.6 0-44.032 17.408-44.032 40.96s18.432 40.96 44.032 40.96c34.816 0 70.656 0 105.472 0 24.576 0 44.032-18.432 43.008-40.96 0-22.528-18.432-39.936-43.008-40.96-17.408 0-35.84 0-53.248 0z" />
<glyph unicode="&#xe919;" glyph-name="quest" d="M512 960c-282.624 0-512-229.376-512-512s229.376-512 512-512c282.624 0 512 229.376 512 512s-229.376 512-512 512zM512 4.608c-244.736 0-443.392 198.656-443.392 443.392s198.656 443.392 443.392 443.392c244.736 0 443.392-198.656 443.392-443.392s-198.656-443.392-443.392-443.392zM518.144 722.432c-39.936 5.12-73.728-11.264-101.376-38.912-24.576-24.576-35.84-56.32-35.84-91.136 0-18.432 11.264-29.696 28.672-30.72s29.696 10.24 31.744 27.648c0 3.072 0 6.144 0 8.192 2.048 19.456 7.168 35.84 23.552 48.128 26.624 18.432 56.32 18.432 82.944 3.072 24.576-14.336 37.888-47.104 32.768-76.8-3.072-20.48-15.36-32.768-30.72-45.056-41.984-33.792-63.488-78.848-66.56-133.12 0-2.048 0-5.12 0-7.168 1.024-22.528 19.456-35.84 40.96-28.672 11.264 4.096 16.384 12.288 14.336 24.576-1.024 5.12-1.024 11.264 0 17.408 3.072 20.48 11.264 38.912 24.576 54.272 10.24 12.288 22.528 23.552 33.792 33.792 34.816 33.792 53.248 73.728 44.032 123.904-13.312 63.488-62.464 103.424-122.88 110.592zM546.816 206.336c0-18.663-15.129-33.792-33.792-33.792s-33.792 15.129-33.792 33.792c0 18.663 15.129 33.792 33.792 33.792s33.792-15.129 33.792-33.792z" />
<glyph unicode="&#xe91a;" glyph-name="rule" d="M104.448 448c0 132.096 0 263.168 0 395.264 0 49.152 22.528 84.992 66.56 106.496 14.336 7.168 30.72 10.24 47.104 10.24 195.584 0 391.168 0 586.752 0 64.512 0 113.664-50.176 113.664-113.664 0-177.152 0-353.28 0-530.432 0-32.768-11.264-60.416-34.816-82.944-87.040-87.040-175.104-175.104-262.144-262.144-22.528-22.528-49.152-33.792-80.896-33.792-107.52 0-216.064 0-323.584 0-64.512 0-112.64 51.2-112.64 115.712 0 131.072 0 263.168 0 395.264zM861.184 330.24c0 3.072 0 5.12 0 7.168 0 168.96 0 337.92 0 506.88 0 34.816-23.552 58.368-58.368 58.368-194.56 0-388.096 0-582.656 0-34.816 0-58.368-23.552-58.368-58.368 0-264.192 0-527.36 0-791.552 0-34.816 23.552-58.368 58.368-58.368 99.328 0 197.632 0 296.96 0 2.048 0 5.12 0 7.168 0 0 3.072 0 6.144 0 8.192 0 72.704 0 145.408 0 219.136 0 18.432 5.12 35.84 15.36 51.2 22.528 37.888 57.344 56.32 101.376 56.32 70.656 0 140.288 0 210.944 0 3.072 1.024 6.144 1.024 9.216 1.024zM839.68 271.872c-1.024 0-3.072 0-6.144 0-63.488 0-128-1.024-191.488 0-34.816 0-60.416-25.6-59.392-59.392 1.024-63.488 0-126.976 0-191.488 0-2.048 0-5.12 0-7.168 87.040 87.040 172.032 173.056 257.024 258.048zM491.52 750.080c65.536 0 131.072 0 196.608 0 16.384 0 27.648-7.168 31.744-21.504 4.096-16.384-7.168-33.792-23.552-35.84-3.072 0-6.144-1.024-10.24-1.024-130.048 0-260.096 0-390.144 0-19.456 0-30.72 8.192-33.792 24.576-3.072 15.36 9.216 31.744 25.6 32.768 3.072 0 6.144 0 9.216 0 64.512 1.024 130.048 1.024 194.56 1.024zM491.52 624.128c65.536 0 132.096 0 197.632 0 19.456 0 32.768-14.336 30.72-32.768-1.024-11.264-10.24-21.504-21.504-23.552-4.096-1.024-7.168-1.024-11.264-1.024-130.048 0-261.12 0-391.168 0-4.096 0-9.216 0-13.312 2.048-12.288 4.096-21.504 17.408-19.456 29.696 1.024 14.336 12.288 24.576 26.624 26.624 3.072 0 6.144 0 8.192 0 63.488-1.024 129.024-1.024 193.536-1.024zM490.496 439.808c-65.536 0-131.072 0-196.608 0-16.384 0-27.648 9.216-30.72 23.552-3.072 15.36 6.144 30.72 21.504 33.792 4.096 1.024 7.168 1.024 11.264 1.024 130.048 0 260.096 0 391.168 0 11.264 0 21.504-3.072 28.672-13.312 12.288-18.432 0-41.984-21.504-44.032-3.072 0-6.144 0-8.192 0-66.56-1.024-131.072-1.024-195.584-1.024zM354.304 218.624c43.008 0 78.848-34.816 78.848-78.848 0-43.008-35.84-78.848-78.848-77.824-43.008 0-77.824 34.816-78.848 77.824 0 43.008 34.816 78.848 78.848 78.848zM332.8 313.856c-14.336 0-28.672 0-44.032 0-14.336 0-25.6 11.264-26.624 26.624-1.024 13.312 8.192 26.624 20.48 29.696 3.072 1.024 7.168 1.024 11.264 1.024 25.6 0 52.224 0 77.824 0 20.48 0 33.792-14.336 31.744-33.792-2.048-12.288-12.288-22.528-26.624-22.528-14.336-1.024-29.696-1.024-44.032-1.024z" />
<glyph unicode="&#xe91b;" glyph-name="search" d="M0 44.544c72.704 72.704 145.408 145.408 218.112 218.112-72.704 108.544-98.304 226.304-68.608 353.28 24.576 107.52 81.92 193.536 169.984 258.048 180.224 131.072 425.984 109.568 578.56-48.128 155.648-160.768 165.888-406.528 34.816-578.56-139.264-182.272-404.48-234.496-605.184-94.208-72.704-72.704-146.432-146.432-218.112-218.112-37.888 37.888-72.704 72.704-109.568 109.568zM871.424 516.608c0 159.744-129.024 289.792-289.792 290.816-159.744 1.024-290.816-130.048-290.816-290.816s129.024-289.792 289.792-290.816c160.768 1.024 290.816 131.072 290.816 290.816z" />
<glyph unicode="&#xe91c;" glyph-name="star" d="M215.040-37.376c-17.408 1.024-30.72 16.384-28.672 33.792 7.168 45.056 14.336 89.088 22.528 133.12 10.24 58.368 19.456 116.736 29.696 175.104 1.024 6.144 0 9.216-4.096 14.336-74.752 71.68-148.48 143.36-223.232 214.016-8.192 7.168-13.312 15.36-11.264 27.648s11.264 20.48 24.576 22.528c72.704 11.264 145.408 21.504 218.112 31.744 31.744 5.12 63.488 9.216 95.232 13.312 5.12 1.024 7.168 4.096 9.216 8.192 45.056 92.16 91.136 184.32 136.192 277.504 8.192 16.384 22.528 23.552 36.864 17.408 8.192-3.072 13.312-10.24 17.408-17.408 31.744-63.488 63.488-126.976 95.232-190.464 14.336-28.672 28.672-57.344 43.008-86.016 2.048-5.12 5.12-7.168 10.24-8.192 103.424-14.336 205.824-28.672 309.248-44.032 12.288-2.048 22.528-7.168 26.624-20.48 4.096-12.288-1.024-22.528-9.216-30.72-73.728-71.68-147.456-143.36-221.184-216.064-5.12-5.12-6.144-9.216-5.12-15.36 18.432-101.376 35.84-203.776 54.272-305.152 2.048-11.264-1.024-21.504-10.24-28.672s-20.48-8.192-30.72-3.072c-22.528 11.264-45.056 23.552-68.608 34.816-69.632 35.84-139.264 72.704-208.896 108.544-6.144 3.072-11.264 3.072-16.384 0-91.136-48.128-181.248-96.256-272.384-143.36-6.144 0-12.288-1.024-18.432-3.072zM934.912 538.112c-21.504 3.072-39.936 6.144-59.392 8.192-70.656 10.24-141.312 20.48-212.992 29.696-14.336 2.048-23.552 9.216-29.696 21.504-38.912 78.848-78.848 156.672-117.76 235.52-1.024 2.048-2.048 5.12-4.096 7.168-2.048-3.072-3.072-5.12-4.096-8.192-38.912-78.848-77.824-158.72-116.736-237.568-6.144-11.264-14.336-18.432-26.624-20.48-69.632-10.24-140.288-20.48-209.92-30.72-20.48-3.072-41.984-6.144-64.512-9.216 3.072-3.072 6.144-4.096 8.192-6.144 63.488-61.44 128-122.88 191.488-184.32 9.216-8.192 12.288-18.432 10.24-29.696-12.288-72.704-24.576-146.432-36.864-219.136-3.072-17.408-6.144-33.792-9.216-52.224 4.096 2.048 6.144 3.072 9.216 5.12 77.824 40.96 155.648 81.92 233.472 122.88 12.288 6.144 23.552 6.144 35.84 0 77.824-40.96 156.672-80.896 234.496-121.856 3.072-1.024 5.12-3.072 8.192-4.096 0 3.072 0 4.096 0 6.144-15.36 87.040-30.72 175.104-46.080 262.144-2.048 13.312 1.024 24.576 11.264 33.792 43.008 40.96 84.992 81.92 126.976 122.88 21.504 22.528 44.032 45.056 68.608 68.608z" />
<glyph unicode="&#xe91d;" glyph-name="sun" d="M224.256 448c0 159.744 129.024 288.768 288.768 288.768 158.72 0 287.744-129.024 287.744-288.768 0-158.72-129.024-287.744-287.744-287.744-159.744 0-288.768 129.024-288.768 287.744zM512 223.744c123.904 1.024 224.256 101.376 224.256 224.256-1.024 123.904-101.376 224.256-224.256 224.256-124.928-1.024-224.256-101.376-224.256-224.256 1.024-123.904 101.376-224.256 224.256-224.256zM173.056 819.712c9.216 0 16.384-4.096 22.528-10.24 22.528-22.528 45.056-44.032 66.56-66.56 13.312-13.312 13.312-33.792 0-46.080s-31.744-12.288-46.080 1.024c-22.528 22.528-45.056 45.056-66.56 67.584-10.24 10.24-12.288 22.528-7.168 35.84 6.144 11.264 16.384 17.408 30.72 18.432zM848.896 77.312c-7.168 0-14.336 3.072-20.48 9.216-22.528 22.528-45.056 45.056-67.584 67.584-13.312 13.312-13.312 32.768 0 45.056 12.288 12.288 31.744 12.288 45.056-1.024 22.528-22.528 45.056-44.032 67.584-66.56 10.24-10.24 12.288-22.528 7.168-35.84-5.12-12.288-16.384-19.456-31.744-18.432zM944.128 416.256c-15.36 0-30.72 0-47.104 0-19.456 0-32.768 14.336-32.768 31.744 0 18.432 14.336 31.744 32.768 31.744 30.72 0 62.464 0 93.184 0 19.456 0 32.768-14.336 32.768-31.744 0-18.432-14.336-31.744-33.792-31.744-14.336 0-29.696 0-45.056 0zM480.256 15.872c0 15.36 0 30.72 0 47.104 0 19.456 13.312 32.768 31.744 33.792 18.432 0 31.744-14.336 31.744-32.768 0-30.72 0-62.464 0-93.184 0-19.456-14.336-33.792-31.744-33.792-18.432 0-31.744 14.336-31.744 32.768 0 15.36 0 30.72 0 46.080zM543.744 879.104c0-15.36 0-30.72 0-46.080 0-19.456-13.312-33.792-31.744-33.792s-31.744 14.336-31.744 33.792c0 30.72 0 61.44 0 93.184 0 19.456 13.312 33.792 31.744 33.792s31.744-14.336 32.768-33.792c0 0 0-1.024 0-1.024-1.024-15.36-1.024-30.72-1.024-46.080zM79.872 479.744c15.36 0 30.72 0 46.080 0 19.456 0 33.792-13.312 33.792-31.744s-14.336-31.744-33.792-32.768c-30.72 0-61.44 0-93.184 0-18.432 1.024-32.768 14.336-32.768 32.768s14.336 31.744 33.792 32.768c15.36-1.024 30.72-1.024 46.080-1.024zM190.464 96.768c-10.24 1.024-20.48 6.144-26.624 17.408s-4.096 22.528 3.072 32.768c1.024 2.048 3.072 3.072 4.096 5.12 21.504 21.504 41.984 43.008 63.488 63.488 17.408 17.408 43.008 13.312 52.224-7.168 6.144-12.288 4.096-24.576-6.144-35.84-8.192-8.192-15.36-16.384-23.552-24.576-13.312-13.312-27.648-27.648-40.96-40.96-6.144-6.144-13.312-10.24-25.6-10.24zM797.696 699.904c-13.312 2.048-23.552 8.192-28.672 19.456s-4.096 22.528 3.072 32.768c1.024 2.048 2.048 3.072 4.096 5.12 21.504 21.504 43.008 43.008 64.512 64.512 9.216 9.216 20.48 13.312 33.792 9.216 12.288-4.096 19.456-12.288 21.504-25.6 2.048-11.264-3.072-21.504-11.264-29.696-20.48-20.48-39.936-39.936-60.416-60.416-2.048-2.048-4.096-5.12-7.168-7.168-6.144-2.048-12.288-5.12-19.456-8.192z" />
<glyph unicode="&#xe91e;" glyph-name="transact" d="M512 960c-282.624 0-512-229.376-512-512s229.376-512 512-512c282.624 0 512 229.376 512 512s-229.376 512-512 512zM512 4.608c-244.736 0-443.392 198.656-443.392 443.392s198.656 443.392 443.392 443.392c244.736 0 443.392-198.656 443.392-443.392s-198.656-443.392-443.392-443.392zM559.104 576c-1.024 25.6-22.528 43.008-47.104 39.936-21.504-3.072-34.816-20.48-34.816-46.080 0-132.096 0-264.192 0-396.288 0-4.096 0-7.168 1.024-11.264 3.072-20.48 20.48-34.816 39.936-34.816 23.552 0 40.96 18.432 40.96 44.032 0 66.56 0 133.12 0 199.68 0 40.96 0 81.92 0 121.856 1.024 28.672 1.024 55.296 0 82.944zM512 768.512c-27.648 0-51.2-23.552-51.2-52.224s24.576-52.224 52.224-52.224c27.648 0 51.2 23.552 51.2 52.224s-23.552 52.224-52.224 52.224z" />
<glyph unicode="&#xe91f;" glyph-name="dasigno" d="M453.632 448.679c0-94.208-76.8-169.984-171.008-169.984s-169.984 76.8-169.984 169.984c0 94.208 75.776 169.984 169.984 169.984 31.744 0 61.44-8.192 87.040-23.552v0c9.216-5.12 18.432-8.192 28.672-8.192 31.744 0 57.344 25.6 57.344 56.32 0 21.504-12.288 39.936-29.696 50.176-41.984 24.576-90.112 37.888-142.336 37.888-156.672 0-284.672-126.976-284.672-283.648s126.976-283.648 284.672-283.648c156.672 2.048 283.648 129.024 283.648 284.672zM567.842 447.89c0 94.208 76.8 169.984 171.008 169.984s171.008-75.776 171.008-169.984c0-94.208-76.8-169.984-171.008-169.984-31.744 0-61.44 8.192-87.040 23.552-9.216 5.12-18.432 8.192-28.672 8.192-31.744 0-57.344-25.6-57.344-56.32 0-21.504 12.288-39.936 29.696-50.176 41.984-24.576 90.112-37.888 142.336-37.888 157.696 0 284.672 126.976 284.672 282.624 0 156.672-126.976 283.648-284.672 283.648-156.672 0-284.672-126.976-284.672-283.648z" />
<glyph unicode="&#xe920;" glyph-name="loc" d="M897.024 572.928c-3.072-78.848-26.624-150.528-71.68-215.040-95.232-134.144-190.464-268.288-284.672-402.432-18.432-26.624-40.96-25.6-59.392 0-94.208 133.12-189.44 266.24-283.648 400.384-46.080 65.536-73.728 137.216-69.632 218.112 9.216 167.936 84.992 292.864 243.712 358.4 215.040 89.088 466.944-47.104 513.024-274.432 5.12-27.648 8.192-56.32 12.288-84.992zM276.48 581.12c0-128 103.424-233.472 231.424-234.496 130.048-1.024 235.52 102.4 236.544 230.4 1.024 129.024-102.4 236.544-229.376 236.544-133.12 2.048-237.568-101.376-238.592-232.448z" />
<glyph unicode="&#xe921;" glyph-name="down" d="M1004.544 722.432c-25.6 22.528-64.512 22.528-88.064-2.048-89.088-90.112-402.432-411.648-402.432-411.648s-312.32 321.536-405.504 412.672c-26.624 26.624-69.632 23.552-94.208-5.12v0c-21.504-25.6-19.456-62.464 5.12-86.016 93.184-91.136 319.488-328.704 433.152-439.296 15.36-15.36 31.744-29.696 53.248-34.816 6.144 0 12.288 0 18.432 0 16.384 4.096 29.696 12.288 41.984 24.576 112.64 114.688 343.040 351.232 440.32 451.584 24.576 24.576 23.552 65.536-2.048 90.112v0z" />
<glyph unicode="&#xe922;" glyph-name="clip" d="M972.8 875.008c-32.768 32.768-76.8 49.152-123.904 49.152 0 0 0 0 0 0-47.104 0-91.136-16.384-123.904-49.152l-481.28-479.232c-24.576-24.576-36.864-56.32-36.864-90.112s13.312-66.56 36.864-90.112c24.576-24.576 56.32-37.888 90.112-37.888s66.56 13.312 90.112 36.864l362.496 362.496c12.288 12.288 12.288 31.744 0 44.032s-32.768 11.264-45.056 0l-362.496-363.52c-11.264-11.264-27.648-19.456-45.056-19.456 0 0 0 0 0 0-17.408 0-33.792 8.192-45.056 19.456-12.288 12.288-18.432 29.696-18.432 47.104s7.168 33.792 18.432 45.056l481.28 481.28c21.504 21.504 49.152 32.768 78.848 32.768s58.368-11.264 79.872-32.768c44.032-44.032 44.032-114.688 0-158.72l-591.872-590.848c-62.464-62.464-163.84-62.464-226.304 0s-62.464 163.84 0 226.304l473.088 473.088c6.144 6.144 9.216 14.336 9.216 22.528s-3.072 16.384-9.216 22.528c-12.288 12.288-32.768 12.288-45.056 0l-473.088-473.088c-41.984-41.984-65.536-98.304-65.536-157.696s23.552-115.712 65.536-157.696c41.984-41.984 98.304-65.536 157.696-65.536s115.712 22.528 157.696 64.512l591.872 591.872c68.608 67.584 68.608 178.176 0 246.784z" />
<glyph unicode="&#xe923;" glyph-name="cup" d="M1005.568 725.504c-2.048-13.312-4.096-26.624-7.168-38.912-7.168-33.792-22.528-64.512-45.056-91.136-23.552-27.648-49.152-52.224-80.896-70.656-26.624-15.36-55.296-25.6-87.040-25.6-6.144 0-8.192-3.072-10.24-8.192-14.336-33.792-33.792-65.536-58.368-93.184-46.080-51.2-102.4-83.968-172.032-93.184 0-66.56 0-234.496 0-302.080 3.072 0 7.168 0 10.24 0 28.672 0 98.304 0 126.976 0 16.384 0 28.672-9.216 32.768-23.552 4.096-13.312 0-29.696-12.288-35.84-7.168-4.096-16.384-6.144-24.576-6.144-64.512 0-169.984 0-234.496 0-22.528 0-86.016 0-108.544 0-15.36 0-27.648 11.264-29.696 26.624-3.072 16.384 5.12 30.72 19.456 36.864 5.12 2.048 11.264 3.072 17.408 3.072 27.648 0 96.256 0 123.904 0 4.096 0 7.168 0 12.288 0 0 5.12 0 9.216 0 13.312 0 59.392 0 219.136 0 277.504 0 9.216-2.048 13.312-12.288 15.36-83.968 17.408-146.432 66.56-191.488 138.24-9.216 14.336-16.384 30.72-24.576 46.080-1.024 3.072-5.12 6.144-7.168 6.144-52.224 1.024-95.232 23.552-133.12 56.32-40.96 34.816-73.728 75.776-84.992 131.072-7.168 36.864-8.192 73.728-3.072 110.592 3.072 19.456 16.384 29.696 35.84 29.696 49.152 0 97.28 0 146.432 0 4.096 0 7.168 0 12.288 0 0 5.12 0 8.192 0 12.288 0 27.648 0 56.32 0 83.968 0 22.528 13.312 34.816 35.84 34.816 174.080 0 348.16 0 522.24 0 21.504 1.024 34.816-12.288 34.816-33.792 0-27.648 0-56.32 0-83.968 0-4.096 0-7.168 0-12.288 5.12 0 8.192 0 12.288 0 47.104 0 93.184 0 140.288 0 26.624 0 36.864-8.192 40.96-34.816 1.024-6.144 2.048-12.288 3.072-19.456 0-16.384 0-32.768 0-49.152zM282.624 893.44c0-2.048-1.024-3.072-1.024-5.12 0-89.088-2.048-178.176 2.048-266.24 3.072-72.704 29.696-137.216 79.872-190.464 77.824-82.944 194.56-92.16 278.528-21.504 65.536 56.32 96.256 131.072 99.328 215.040 4.096 87.040 1.024 174.080 2.048 261.12 0 2.048-1.024 4.096-1.024 7.168-153.6 0-306.176 0-459.776 0zM226.304 566.784c-16.384 65.536-7.168 130.048-10.24 194.56-44.032 0-87.040 0-130.048 0-12.288-79.872 61.44-183.296 140.288-194.56zM799.744 566.784c77.824 12.288 153.6 118.784 139.264 194.56-43.008 0-84.992 0-129.024 0-3.072-64.512 5.12-129.024-10.24-194.56z" />
<glyph unicode="&#xe924;" glyph-name="date" d="M922.624 826.88h-154.624v81.92h-61.44v-81.92h-389.12v81.92h-61.44v-81.92h-158.72c-54.272 0-97.28-47.104-97.28-101.376v-644.096c0-54.272 43.008-94.208 97.28-94.208h825.344c55.296 0 101.376 39.936 101.376 94.208v644.096c0 54.272-46.080 101.376-101.376 101.376zM97.28 765.44h158.72v-40.96h61.44v40.96h389.12v-40.96h61.44v40.96h154.624c22.528 0 39.936-17.408 39.936-39.936v-134.144h-901.12v134.144c0 22.528 13.312 39.936 35.84 39.936zM922.624 38.4h-825.344c-22.528 0-35.84 20.48-35.84 43.008v448.512h901.12v-448.512c0-22.528-16.384-43.008-39.936-43.008z" />
<glyph unicode="&#xe925;" glyph-name="delete" d="M174.080-64c-20.48 9.216-27.648 24.576-27.648 47.104l1.024 653.312c3.072 18.432 19.456 31.744 37.888 30.72s32.768-15.36 33.792-33.792v-623.616h584.704v731.136h-719.872c-22.528 0-37.888 7.168-47.104 27.648 0 6.144 0 12.288 0 18.432 9.216 20.48 24.576 27.648 47.104 27.648 69.632-1.024 140.288 0 209.92-1.024 10.24 0 14.336 3.072 18.432 12.288 16.384 34.816 34.816 69.632 51.2 104.448 6.144 13.312 14.336 24.576 28.672 30.72 78.848 0 158.72 0 237.568 0 14.336-6.144 22.528-16.384 28.672-30.72 17.408-34.816 34.816-69.632 52.224-105.472 4.096-8.192 8.192-11.264 17.408-11.264l210.944 1.024c22.528 0 37.888-7.168 47.104-27.648 0-6.144 0-12.288 0-18.432-9.216-20.48-24.576-29.696-47.104-27.648-10.24 1.024-62.464 0-62.464 0s0-510.976 0-757.76c0-22.528-7.168-37.888-27.648-47.104-224.256 0-449.536 0-674.816 0zM388.096 814.592c82.944 0 163.84 0 246.784 0-12.288 23.552-22.528 46.080-34.816 68.608-1.024 2.048-5.12 4.096-8.192 4.096-53.248 0-107.52 0-160.768 0-3.072 0-7.168-2.048-9.216-5.12-10.24-22.528-21.504-44.032-33.792-67.584zM439.296 338.432c0-60.416 0-120.832 0-181.248 0-20.48-13.312-35.84-32.768-37.888-18.432-2.048-34.816 9.216-38.912 27.648-1.024 4.096-1.024 9.216-1.024 13.312 0 118.784 0 237.568 0 356.352 0 24.576 14.336 40.96 35.84 40.96 22.528 0 36.864-16.384 36.864-40.96 0-59.392 0-118.784 0-178.176zM658.432 338.432c0-60.416 0-121.856 0-182.272 0-19.456-14.336-34.816-32.768-36.864s-34.816 9.216-39.936 27.648c-1.024 3.072-1.024 7.168-1.024 10.24 0 120.832 0 241.664 0 363.52 0 20.48 13.312 35.84 32.768 37.888 18.432 2.048 35.84-10.24 39.936-28.672 1.024-4.096 1.024-9.216 1.024-13.312 0-60.416 0-118.784 0-178.176z" />
<glyph unicode="&#xe926;" glyph-name="phone" d="M828.416 850.432c0 61.44-48.128 109.568-109.568 109.568h-408.576c-67.584 0-113.664-47.104-113.664-113.664v-795.648c0-32.768 11.264-61.44 31.744-81.92s49.152-31.744 81.92-31.744h403.456c0 0 0 0 0 0 32.768 0 61.44 11.264 81.92 31.744s31.744 49.152 31.744 81.92l1.024 799.744zM768 30.208c-3.072-22.528-19.456-35.84-47.104-35.84h-414.72c-35.84 0-52.224 16.384-52.224 51.2v41.984h514.048c0-4.096 0-8.192 0-12.288 1.024-14.336 2.048-29.696 0-45.056zM254.976 147.968v637.952h514.048v-637.952h-514.048zM253.952 845.312c-2.048 14.336 1.024 27.648 9.216 37.888 9.216 11.264 23.552 17.408 39.936 17.408 139.264 0 278.528 0 417.792 0 30.72 0 48.128-17.408 48.128-48.128 0-2.048 0-5.12 0-8.192h-515.072zM571.392 65.024h-108.544c-12.288 0-22.528-10.24-22.528-22.528s10.24-22.528 22.528-22.528h107.52c12.288 0 22.528 10.24 22.528 22.528 1.024 12.288-9.216 22.528-21.504 22.528z" />
<glyph unicode="&#xe927;" glyph-name="camera" d="M905.216 761.344h-125.952c-1.024 2.048-1.024 4.096-2.048 6.144-16.384 73.728-82.944 126.976-157.696 126.976h-215.040c-69.632 0-134.144-47.104-154.624-115.712-1.024-4.096-2.048-7.168-3.072-11.264 0-2.048-1.024-4.096-1.024-6.144h-125.952c-68.608-1.024-119.808-52.224-119.808-119.808v-522.24c0-64.512 53.248-117.76 117.76-117.76h787.456c65.536 0 118.784 53.248 118.784 117.76v524.288c0 65.536-53.248 117.76-118.784 117.76zM969.728 100.864c-6.144-26.624-25.6-44.032-52.224-45.056l-796.672-1.024c-45.056 0-66.56 21.504-66.56 65.536v520.192c0 45.056 21.504 66.56 66.56 66.56h140.288c26.624 0 35.84 8.192 36.864 33.792 3.072 51.2 35.84 88.064 84.992 96.256l238.592 2.048c21.504 1.024 40.96-4.096 58.368-14.336 28.672-18.432 44.032-44.032 48.128-78.848 1.024-3.072 1.024-7.168 1.024-11.264 1.024-17.408 11.264-26.624 29.696-26.624h146.432c44.032 0 66.56-22.528 66.56-66.56v-513.024c-1.024-9.216-1.024-18.432-2.048-27.648zM512 673.28c-146.432 0-270.336-122.88-270.336-269.312s123.904-270.336 270.336-270.336c1.024 0 1.024 0 2.048 0 69.632 0 136.192 27.648 187.392 78.848s80.896 119.808 80.896 188.416c0 148.48-123.904 272.384-270.336 272.384zM512 186.88c-122.88 0-215.040 93.184-215.040 216.064s93.184 216.064 216.064 216.064c122.88 0 215.040-93.184 215.040-216.064 1.024-120.832-94.208-216.064-216.064-216.064z" />
<glyph unicode="&#xe928;" glyph-name="default" d="M929.792 633.344h-93.184v46.080h-185.344v186.368h-463.872v-231.424h-94.208v234.496c0 32.768 25.6 80.896 75.776 89.088 15.36 2.048 30.72 2.048 47.104 2.048 144.384 0 472.064 0 491.52 0 5.12 0 12.288-3.072 16.384-6.144 45.056-46.080 90.112-91.136 136.192-137.216 20.48-20.48 40.96-40.96 61.44-61.44 6.144-6.144 8.192-11.264 8.192-19.456 0-33.792 0-102.4 0-102.4zM836.608 30.208v122.88h94.208c0 0 4.096-130.048-6.144-156.672-14.336-36.864-49.152-59.392-89.088-59.392-126.976 0-253.952 0-380.928 0-88.064 0-177.152 0-265.216 0-47.104 0-86.016 30.72-94.208 76.8-3.072 20.48-1.024 140.288-1.024 140.288h92.16v-122.88h650.24zM523.264 777.728c8.192-5.12 17.408-10.24 24.576-17.408 9.216-9.216 11.264-21.504 11.264-33.792 0-160.768 0-169.984 0-330.752 0-30.72 0-62.464 0-96.256 5.12 4.096 7.168 7.168 10.24 9.216 31.744 31.744 64.512 64.512 96.256 96.256 13.312 13.312 29.696 17.408 48.128 11.264s28.672-20.48 31.744-38.912c2.048-14.336-3.072-26.624-13.312-36.864-62.464-62.464-124.928-124.928-187.392-187.392-18.432-18.432-46.080-17.408-64.512 1.024-62.464 61.44-123.904 123.904-185.344 185.344-19.456 19.456-18.432 48.128 0 66.56 18.432 17.408 47.104 17.408 65.536-1.024 31.744-31.744 63.488-63.488 95.232-95.232 3.072-3.072 6.144-5.12 11.264-10.24 0 7.168 0 11.264 0 15.36 0 187.392 0 222.208 0 409.6 0 25.6 9.216 43.008 33.792 52.224 1.024 0 1.024 1.024 1.024 2.048 7.168-1.024 14.336-1.024 21.504-1.024z" />
<glyph unicode="&#xe929;" glyph-name="film" d="M730.112 471.552l-368.64 233.472c-10.24 5.12-22.528-2.048-22.528-13.312v-466.944c0-11.264 12.288-18.432 22.528-13.312l368.64 233.472c11.264 5.12 11.264 21.504 0 26.624zM930.816 841.216h-837.632c-51.2 0-93.184-40.96-93.184-92.16v-601.088c0-51.2 41.984-92.16 93.184-92.16h837.632c51.2 0 93.184 40.96 93.184 92.16v601.088c0 50.176-41.984 92.16-93.184 92.16zM969.728 146.944c0-21.504-17.408-38.912-38.912-38.912h-837.632c-21.504 0-38.912 17.408-38.912 38.912v602.112c0 21.504 17.408 38.912 38.912 38.912h837.632c21.504 0 38.912-17.408 38.912-38.912v-602.112z" />
<glyph unicode="&#xe92a;" glyph-name="mas" d="M974.848 491.008c-25.6 0-52.224 0-76.8 0-113.664-1.024-227.328-1.024-342.016-1.024 0 6.144-1.024 11.264-1.024 16.384 0 133.12 1.024 266.24 1.024 400.384 0 4.096-1.024 9.216-1.024 13.312-1.024 18.432-13.312 33.792-29.696 38.912-17.408 5.12-35.84 0-46.080-15.36-6.144-9.216-9.216-20.48-9.216-30.72-1.024-135.168 0-270.336-1.024-405.504 1.024-5.12 0-10.24 0-16.384-92.16 1.024-183.296 1.024-274.432 1.024-50.176 1.024-100.352 1.024-150.528 1.024-20.48 0-36.864-13.312-41.984-30.72-5.12-18.432 2.048-37.888 18.432-47.104 9.216-5.12 19.456-7.168 28.672-7.168 135.168-1.024 270.336-1.024 404.48-1.024 4.096 0 9.216 3.072 13.312 4.096 2.048-11.264 1.024-15.36 1.024-20.48 0-133.12 0-266.24 0-400.384 0-4.096 0-8.192 1.024-13.312 2.048-18.432 11.264-30.72 28.672-36.864 16.384-6.144 35.84-2.048 45.056 12.288 7.168 10.24 11.264 22.528 11.264 34.816 1.024 135.168 0 270.336 1.024 404.48 0 5.12 0 9.216 1.024 17.408 6.144-2.048 10.24-3.072 15.36-3.072 134.144 0 269.312 1.024 403.456 0 29.696 0 50.176 17.408 50.176 41.984-1.024 25.6-21.504 43.008-50.176 43.008z" />
<glyph unicode="&#xe92b;" glyph-name="next" d="M237.568 940.544c-22.528-25.6-22.528-64.512 2.048-88.064 90.112-89.088 411.648-402.432 411.648-402.432s-321.536-312.32-412.672-405.504c-26.624-26.624-23.552-69.632 5.12-94.208v0c25.6-21.504 62.464-19.456 86.016 5.12 91.136 93.184 328.704 319.488 439.296 433.152 15.36 15.36 29.696 31.744 34.816 53.248 0 6.144 0 12.288 0 18.432-4.096 16.384-12.288 29.696-24.576 41.984-114.688 112.64-351.232 343.040-451.584 440.32-24.576 24.576-65.536 23.552-90.112-2.048v0z" />
<glyph unicode="&#xe92c;" glyph-name="picture" d="M0 19.968c0 285.696 0 570.368 0 856.064 1.024 2.048 2.048 5.12 2.048 7.168 8.192 35.84 29.696 60.416 63.488 71.68 6.144 2.048 12.288 3.072 18.432 5.12 285.696 0 570.368 0 856.064 0 2.048-1.024 4.096-2.048 6.144-2.048 39.936-8.192 64.512-32.768 74.752-71.68 1.024-3.072 2.048-7.168 3.072-10.24 0-285.696 0-570.368 0-856.064-1.024-3.072-2.048-6.144-2.048-8.192-9.216-38.912-32.768-62.464-71.68-72.704-3.072-1.024-7.168-2.048-10.24-3.072-285.696 0-570.368 0-856.064 0-2.048 1.024-4.096 2.048-6.144 2.048-39.936 8.192-64.512 32.768-74.752 71.68-1.024 3.072-2.048 7.168-3.072 10.24zM897.024 328.192c1.024 0 2.048 1.024 3.072 1.024 0 3.072 0 7.168 0 10.24-1.024 151.552-2.048 303.104-3.072 454.656 0 26.624-10.24 37.888-37.888 37.888-231.424 0-462.848 0-695.296 0-24.576 0-35.84-11.264-35.84-35.84 0-184.32 0-368.64 0-552.96 0-3.072 0-5.12 1.024-8.192 1.024 0 2.048-1.024 2.048-1.024 2.048 3.072 4.096 6.144 7.168 8.192 35.84 35.84 72.704 72.704 108.544 108.544 43.008 43.008 100.352 43.008 143.36 0 21.504-21.504 44.032-44.032 65.536-65.536 2.048-2.048 5.12-5.12 9.216-9.216 3.072 4.096 5.12 7.168 8.192 10.24 54.272 54.272 107.52 108.544 161.792 161.792 40.96 40.96 99.328 40.96 141.312 0 32.768-32.768 65.536-65.536 98.304-98.304 7.168-6.144 14.336-14.336 22.528-21.504zM447.488 624.128c0-60.416-51.2-111.616-111.616-111.616s-111.616 51.2-111.616 111.616c0 60.416 51.2 112.64 112.64 111.616 59.392 0 110.592-52.224 110.592-111.616z" />
<glyph unicode="&#xe92d;" glyph-name="prev" d="M786.432 940.544c23.552-24.576 22.528-64.512-2.048-88.064-90.112-89.088-411.648-402.432-411.648-402.432s321.536-312.32 412.672-405.504c26.624-26.624 23.552-69.632-5.12-94.208v0c-25.6-21.504-62.464-19.456-86.016 5.12-91.136 93.184-328.704 319.488-439.296 432.128-15.36 15.36-29.696 31.744-34.816 53.248 0 6.144 0 12.288 0 18.432 4.096 16.384 12.288 29.696 24.576 41.984 114.688 112.64 351.232 343.040 451.584 440.32 24.576 25.6 65.536 24.576 90.112-1.024v0z" />
<glyph unicode="&#xe92e;" glyph-name="clock" d="M678.912 224.768c-12.288-3.072-21.504 2.048-30.72 11.264-58.368 59.392-117.76 118.784-177.152 178.176-3.072 3.072-7.168 6.144-10.24 9.216-8.192 7.168-12.288 15.36-12.288 26.624 0 94.208 0 188.416 0 281.6 0 21.504 12.288 35.84 31.744 35.84s31.744-14.336 31.744-35.84c0-44.032 0-88.064 0-132.096s0-88.064 0-132.096c0-6.144 2.048-11.264 6.144-15.36 58.368-58.368 116.736-115.712 175.104-174.080 9.216-9.216 13.312-19.456 9.216-31.744-3.072-11.264-11.264-18.432-23.552-21.504zM513.024 896.512c-246.784 0-448.512-200.704-448.512-448.512 0-246.784 199.68-447.488 446.464-448.512 247.808 0 448.512 200.704 449.536 448.512 0 246.784-200.704 447.488-447.488 448.512zM1021.952 407.040c-4.096-49.152-13.312-97.28-32.768-143.36-72.704-176.128-202.752-283.648-390.144-319.488-18.432-4.096-37.888-5.12-57.344-8.192h-60.416c-2.048 1.024-5.12 1.024-8.192 2.048-23.552 3.072-48.128 5.12-70.656 10.24-301.056 63.488-479.232 388.096-369.664 677.888 91.136 243.712 346.112 379.904 599.040 319.488 196.608-46.080 351.232-210.944 384-409.6 3.072-18.432 5.12-37.888 8.192-56.32v-63.488c-1.024-3.072-2.048-6.144-2.048-9.216z" />
<glyph unicode="&#xe92f;" glyph-name="flag" d="M760.832 667.136l185.344 232.448c8.192 11.264 10.24 25.6 5.12 38.912s-17.408 21.504-30.72 21.504h-747.52c-18.432 0-33.792-16.384-33.792-36.864s15.36-36.864 33.792-36.864h673.792l-156.672-194.56c-11.264-13.312-11.264-33.792 0-48.128l155.648-195.584h-640v475.136c0 20.48-15.36 36.864-33.792 36.864s-33.792-16.384-33.792-36.864v-914.432h-33.792c-18.432 0-33.792-16.384-33.792-36.864s15.36-36.864 33.792-36.864h136.192c18.432 0 33.792 16.384 33.792 36.864s-15.36 36.864-33.792 36.864h-33.792v366.592h713.728c13.312 0 25.6 8.192 30.72 21.504s3.072 28.672-5.12 38.912l-185.344 231.424z" />
<glyph unicode="&#xe930;" glyph-name="share" d="M664.576 166.4c-112.64 56.32-225.28 112.64-337.92 168.96-41.984-49.152-94.208-74.752-159.744-69.632-50.176 4.096-92.16 26.624-124.928 65.536-62.464 73.728-54.272 187.392 18.432 251.904 71.68 64.512 191.488 67.584 266.24-23.552 112.64 56.32 224.256 112.64 337.92 168.96-14.336 56.32-5.12 107.52 28.672 154.624 25.6 35.84 60.416 59.392 102.4 69.632 84.992 22.528 175.104-20.48 211.968-101.376 36.864-79.872 11.264-174.080-61.44-225.28-68.608-49.152-177.152-49.152-249.856 36.864-112.64-56.32-225.28-112.64-337.92-168.96 9.216-31.744 9.216-62.464 0-95.232 112.64-56.32 225.28-112.64 338.944-169.984 34.816 41.984 78.848 67.584 133.12 70.656 46.080 3.072 87.040-10.24 123.904-38.912 70.656-56.32 90.112-154.624 46.080-233.472-44.032-77.824-139.264-112.64-224.256-80.896-79.872 31.744-137.216 120.832-111.616 220.16zM841.728 667.136c60.416 0 109.568 49.152 109.568 109.568s-49.152 109.568-109.568 109.568c-60.416 0-109.568-49.152-109.568-109.568-1.024-60.416 48.128-109.568 109.568-109.568zM950.272 119.296c0 59.392-49.152 109.568-108.544 109.568-61.44 0-110.592-49.152-110.592-109.568s49.152-109.568 109.568-109.568c60.416 0 109.568 49.152 109.568 109.568zM182.272 557.568c-60.416 0-109.568-49.152-109.568-109.568s49.152-109.568 109.568-109.568c59.392 0 109.568 49.152 109.568 108.544 0 61.44-48.128 110.592-109.568 110.592z" />
<glyph unicode="&#xe931;" glyph-name="corazon" d="M299.008 848.384c-131.072 0-238.592-106.496-238.592-237.568 0-61.44 23.552-119.808 66.56-164.864l385.024-386.048 377.856 378.88c48.128 46.080 73.728 106.496 73.728 172.032 0 131.072-107.52 237.568-238.592 237.568-74.752 0-143.36-33.792-188.416-92.16-11.264-15.36-36.864-15.36-48.128 0-46.080 58.368-114.688 92.16-189.44 92.16zM512-12.8c-8.192 0-15.36 3.072-21.504 9.216l-406.528 407.552c-54.272 56.32-83.968 129.024-83.968 206.848 0 163.84 134.144 297.984 299.008 297.984 80.896 0 156.672-31.744 212.992-88.064 56.32 56.32 131.072 88.064 212.992 88.064 164.864 0 299.008-134.144 299.008-297.984 0-81.92-32.768-157.696-91.136-215.040l-398.336-399.36c-7.168-6.144-14.336-9.216-22.528-9.216z" />
<glyph unicode="&#xe932;" glyph-name="msn" d="M522.24 267.776l145.408-141.312v141.312h281.6c8.192 0 15.36 7.168 15.36 15.36v552.96c0 8.192-7.168 15.36-15.36 15.36h-874.496c-8.192 0-15.36-7.168-15.36-15.36v-552.96c0-8.192 7.168-15.36 15.36-15.36 159.744 0 435.2 0 435.2 0h12.288zM727.040-12.8l-229.376 223.232c-55.296 0-283.648 0-422.912 0-40.96 0-74.752 32.768-74.752 72.704v552.96c0 39.936 33.792 72.704 74.752 72.704h874.496c40.96 0 74.752-32.768 74.752-72.704v-552.96c0-39.936-33.792-72.704-74.752-72.704h-222.208v-223.232z" />
<glyph unicode="&#xe933;" glyph-name="file" d="M513.024-20.992c-122.88 0-245.76 0-368.64 0-60.416 0-104.448 27.648-131.072 81.92-9.216 19.456-13.312 39.936-13.312 60.416 0 218.112 0 436.224 0 653.312 0 80.896 61.44 142.336 142.336 142.336 74.752 0 148.48 0 223.232 0 5.12 0 8.192-2.048 11.264-6.144 27.648-41.984 55.296-83.968 82.944-125.952 4.096-6.144 8.192-8.192 15.36-8.192 135.168 0 269.312 0 404.48 0 55.296 0 97.28-23.552 124.928-70.656 13.312-21.504 18.432-46.080 18.432-71.68 0-171.008 0-342.016 0-513.024 0-69.632-46.080-125.952-111.616-139.264-11.264-2.048-22.528-3.072-33.792-3.072-120.832 0-242.688 0-364.544 0zM512 72.192c121.856 0 244.736 0 366.592 0 33.792 0 53.248 18.432 53.248 52.224 0 168.96 0 336.896 0 505.856 0 32.768-19.456 52.224-52.224 52.224-150.528 0-302.080 0-452.608 0-7.168 0-11.264 2.048-15.36 8.192-26.624 41.984-54.272 83.968-81.92 125.952-3.072 4.096-11.264 6.144-11.264 6.144h-173.056c-30.72 0-50.176-19.456-50.176-50.176 0-217.088 0-434.176 0-651.264 0-4.096 0-8.192 1.024-12.288 5.12-22.528 23.552-36.864 49.152-36.864 120.832 0 243.712 0 366.592 0z" />
<glyph unicode="&#xe934;" glyph-name="link" d="M454.656 539.136c3.072 14.336 5.12 28.672 9.216 41.984 13.312 45.056 40.96 79.872 80.896 104.448 41.984 26.624 83.968 52.224 125.952 78.848 26.624 16.384 52.224 33.792 79.872 49.152 33.792 19.456 70.656 26.624 109.568 22.528 47.104-5.12 86.016-24.576 117.76-59.392 25.6-27.648 40.96-59.392 46.080-97.28 9.216-79.872-19.456-142.336-87.040-185.344-64.512-41.984-130.048-81.92-195.584-122.88-51.2-31.744-106.496-36.864-163.84-17.408-4.096 2.048-6.144 2.048-7.168 3.072-3.072-13.312-4.096-25.6-8.192-38.912-13.312-46.080-40.96-81.92-81.92-107.52-51.2-32.768-103.424-64.512-155.648-97.28-20.48-13.312-41.984-26.624-63.488-37.888-79.872-36.864-175.104-11.264-226.304 60.416-43.008 60.416-46.080 141.312-6.144 204.8 16.384 25.6 37.888 46.080 63.488 62.464 65.536 40.96 131.072 82.944 197.632 122.88 51.2 30.72 104.448 34.816 160.768 15.36 1.024 0 2.048-1.024 4.096-2.048zM481.28 401.92c-3.072-2.048-5.12-3.072-7.168-4.096-27.648-17.408-56.32-34.816-83.968-52.224-12.288-8.192-25.6-7.168-38.912 0-23.552 14.336-23.552 47.104 0 63.488 16.384 11.264 33.792 20.48 50.176 31.744 9.216 6.144 19.456 12.288 28.672 18.432-2.048 1.024-3.072 2.048-4.096 2.048-23.552 10.24-47.104 12.288-70.656 5.12-18.432-5.12-33.792-16.384-50.176-26.624-50.176-30.72-100.352-62.464-150.528-94.208-14.336-9.216-29.696-17.408-41.984-29.696-38.912-38.912-40.96-96.256-9.216-136.192 29.696-37.888 83.968-50.176 125.952-28.672 23.552 12.288 45.056 27.648 68.608 41.984 43.008 26.624 86.016 54.272 130.048 80.896 27.648 16.384 48.128 37.888 56.32 70.656 4.096 19.456 3.072 37.888-3.072 57.344zM567.296 456.192c28.672-31.744 80.896-39.936 118.784-18.432 25.6 14.336 50.176 30.72 74.752 46.080 43.008 26.624 84.992 54.272 128 79.872 46.080 27.648 64.512 82.944 43.008 132.096-20.48 45.056-73.728 69.632-121.856 55.296-16.384-6.144-31.744-16.384-47.104-25.6-58.368-35.84-115.712-72.704-174.080-108.544-20.48-12.288-34.816-28.672-44.032-51.2-5.12-12.288-7.168-25.6-7.168-39.936 3.072 2.048 5.12 3.072 7.168 4.096 30.72 18.432 60.416 37.888 91.136 56.32 18.432 11.264 40.96 5.12 51.2-13.312 10.24-16.384 4.096-38.912-12.288-50.176-11.264-7.168-22.528-14.336-34.816-21.504-23.552-14.336-48.128-29.696-72.704-45.056z" />
<glyph unicode="&#xea8b;" glyph-name="google-plus" d="M325.8 502.6v-111.8h184.8c-7.4-48-55.8-140.6-184.8-140.6-111.2 0-202 92.2-202 205.8s90.8 205.8 202 205.8c63.4 0 105.6-27 129.8-50.2l88.4 85.2c-56.8 53-130.4 85.2-218.2 85.2-180.2-0.2-325.8-145.8-325.8-326s145.6-325.8 325.8-325.8c188 0 312.8 132.2 312.8 318.4 0 21.4-2.4 37.8-5.2 54h-307.6zM1024 512h-96v96h-96v-96h-96v-96h96v-96h96v96h96z" />
<glyph unicode="&#xea90;" glyph-name="facebook" d="M608 768h160v192h-160c-123.514 0-224-100.486-224-224v-96h-128v-192h128v-512h192v512h160l32 192h-192v96c0 17.346 14.654 32 32 32z" />
<glyph unicode="&#xea96;" glyph-name="twitter" d="M1024 733.6c-37.6-16.8-78.2-28-120.6-33 43.4 26 76.6 67.2 92.4 116.2-40.6-24-85.6-41.6-133.4-51-38.4 40.8-93 66.2-153.4 66.2-116 0-210-94-210-210 0-16.4 1.8-32.4 5.4-47.8-174.6 8.8-329.4 92.4-433 219.6-18-31-28.4-67.2-28.4-105.6 0-72.8 37-137.2 93.4-174.8-34.4 1-66.8 10.6-95.2 26.2 0-0.8 0-1.8 0-2.6 0-101.8 72.4-186.8 168.6-206-17.6-4.8-36.2-7.4-55.4-7.4-13.6 0-26.6 1.4-39.6 3.8 26.8-83.4 104.4-144.2 196.2-146-72-56.4-162.4-90-261-90-17 0-33.6 1-50.2 3 93.2-59.8 203.6-94.4 322.2-94.4 386.4 0 597.8 320.2 597.8 597.8 0 9.2-0.2 18.2-0.6 27.2 41 29.4 76.6 66.4 104.8 108.6z" />
<glyph unicode="&#xea9d;" glyph-name="youtube" d="M1013.8 652.8c0 0-10 70.6-40.8 101.6-39 40.8-82.6 41-102.6 43.4-143.2 10.4-358.2 10.4-358.2 10.4h-0.4c0 0-215 0-358.2-10.4-20-2.4-63.6-2.6-102.6-43.4-30.8-31-40.6-101.6-40.6-101.6s-10.2-82.8-10.2-165.8v-77.6c0-82.8 10.2-165.8 10.2-165.8s10-70.6 40.6-101.6c39-40.8 90.2-39.4 113-43.8 82-7.8 348.2-10.2 348.2-10.2s215.2 0.4 358.4 10.6c20 2.4 63.6 2.6 102.6 43.4 30.8 31 40.8 101.6 40.8 101.6s10.2 82.8 10.2 165.8v77.6c-0.2 82.8-10.4 165.8-10.4 165.8zM406.2 315.2v287.8l276.6-144.4-276.6-143.4z" />
</font>
</defs>
</svg>
